/* XPM */
static char *_85865c17af44b73fb0729759483fb01VTePRLJLOv1jUo8x[] = {
/* columns rows colors chars-per-pixel */
"64 64 254 2 ",
"   c #030103",
".  c #0B0202",
"X  c #02020C",
"o  c #0A0909",
"O  c #180304",
"+  c #030412",
"@  c #070913",
"#  c #1C1C1C",
"$  c #161615",
"%  c #14130D",
"&  c #280503",
"*  c #370403",
"=  c #251919",
"-  c #331811",
";  c #1C211B",
":  c #1F230C",
">  c #26251B",
",  c #33270D",
"<  c #1C1D25",
"1  c #221E25",
"2  c #3A1E22",
"3  c #1D2525",
"4  c #242324",
"5  c #24232A",
"6  c #2C2C2C",
"7  c #272A27",
"8  c #352A2B",
"9  c #36342B",
"0  c #2D2D33",
"q  c #2D3734",
"w  c #343433",
"e  c #3C3B3C",
"r  c #393738",
"t  c #332F2F",
"y  c #460806",
"u  c #570504",
"i  c #581716",
"p  c #50180A",
"a  c #6A0804",
"s  c #7A0706",
"d  c #691517",
"f  c #791819",
"g  c #6E120C",
"h  c #492702",
"j  c #58231C",
"k  c #522D0E",
"l  c #732819",
"z  c #771B24",
"x  c #472828",
"c  c #463937",
"v  c #503331",
"b  c #682626",
"n  c #792829",
"m  c #683A35",
"M  c #793735",
"N  c #70342B",
"B  c #491F21",
"V  c #3D4239",
"C  c #775A13",
"Z  c #796319",
"A  c #46443B",
"S  c #594B33",
"D  c #764438",
"F  c #675536",
"G  c #6E4C2F",
"H  c #77652B",
"J  c #3B3D41",
"K  c #453E43",
"L  c #533D40",
"P  c #6C3640",
"I  c #3C4343",
"U  c #444444",
"Y  c #4C4C4C",
"T  c #484849",
"R  c #574A48",
"E  c #4C5249",
"W  c #545449",
"Q  c #4D4C51",
"!  c #544E53",
"~  c #4F5251",
"^  c #535353",
"/  c #5C5B5B",
"(  c #585757",
")  c #684A46",
"_  c #794943",
"`  c #665447",
"'  c #665958",
"]  c #795C58",
"[  c #75534B",
"{  c #5A6157",
"}  c #76685A",
"|  c #696555",
" . c #635E63",
".. c #646364",
"X. c #6C6C6D",
"o. c #696667",
"O. c #776967",
"+. c #757467",
"@. c #7B7A7B",
"#. c #767576",
"$. c #6F6F70",
"%. c #5E6065",
"&. c #870908",
"*. c #990607",
"=. c #990C12",
"-. c #881617",
";. c #961819",
":. c #8B110E",
">. c #AC0305",
",. c #AA070A",
"<. c #B30303",
"1. c #B3030A",
"2. c #B90608",
"3. c #A80C13",
"4. c #B60C14",
"5. c #A71818",
"6. c #B61417",
"7. c #B0130E",
"8. c #8C241D",
"9. c #AA221C",
"0. c #9A1B22",
"q. c #8E1624",
"w. c #A91825",
"e. c #B81725",
"r. c #862927",
"t. c #982829",
"y. c #992D35",
"u. c #873938",
"i. c #973838",
"p. c #8F312D",
"a. c #A52627",
"s. c #B72825",
"d. c #A83638",
"f. c #B13032",
"g. c #C40204",
"h. c #CB0304",
"j. c #C8080A",
"k. c #D30304",
"l. c #DB0404",
"z. c #D8080A",
"x. c #D80B12",
"c. c #C91817",
"v. c #D51618",
"b. c #CA0F12",
"n. c #E80708",
"m. c #F20B0A",
"M. c #FB1B1B",
"N. c #F81517",
"B. c #E90F13",
"V. c #CE1923",
"C. c #F81E22",
"Z. c #EC1C22",
"A. c #CE2A2C",
"S. c #F22B2E",
"D. c #FA221E",
"F. c #86581B",
"G. c #86661A",
"H. c #85463A",
"J. c #8A7032",
"K. c #923B46",
"L. c #AC3B44",
"P. c #895A57",
"I. c #8D4C4B",
"U. c #AF504F",
"Y. c #876F57",
"T. c #867977",
"R. c #92716D",
"E. c #B77979",
"W. c #AB7270",
"Q. c #A25A5F",
"!. c #C9706B",
"~. c #C95756",
"^. c #C22140",
"/. c #7D827A",
"(. c #878578",
"). c #928D77",
"_. c #AD9371",
"`. c #B8A779",
"'. c #A8A47D",
"]. c #958E63",
"[. c #CF907C",
"{. c #ADA15C",
"}. c #7E7F82",
"|. c #857E82",
" X c #B87F86",
".X c #7F8281",
"XX c #838484",
"oX c #8C8C8C",
"OX c #898688",
"+X c #948988",
"@X c #969289",
"#X c #8D8D91",
"$X c #928D93",
"%X c #939394",
"&X c #9B9C9C",
"*X c #979797",
"=X c #8E948E",
"-X c #A49B98",
";X c #AC918E",
":X c #9AA19C",
">X c #AFA794",
",X c #9C9CA1",
"<X c #A69DA3",
"1X c #BC9FA1",
"2X c #9DA5A3",
"3X c #A3A3A4",
"4X c #ABABAC",
"5X c #A8A5A8",
"6X c #B7A7A7",
"7X c #B9B3AA",
"8X c #ADADB1",
"9X c #B2AEB4",
"0X c #B4B3B4",
"qX c #BAB9BA",
"wX c #AEB3AB",
"eX c #CF8E90",
"rX c #E99795",
"tX c #ED9FA4",
"yX c #CBB3B0",
"uX c #F9A7A7",
"iX c #F2B0AF",
"pX c #DCAC9E",
"aX c #F5D996",
"sX c #EAD78F",
"dX c #F7E39A",
"fX c #C7C3BB",
"gX c #CEC7B0",
"hX c #FBC6BD",
"jX c #EBD6B1",
"kX c #F7EDAF",
"lX c #D1CB9A",
"zX c #BDBCC0",
"xX c #C3BDC1",
"cX c #F9BCC4",
"vX c #C7C6C8",
"bX c #DDDBDC",
"nX c #D7D5D6",
"mX c #D4D0CC",
"MX c #FCC9C7",
"NX c #FBD7CA",
"BX c #E3D9D9",
"VX c #FCD8D6",
"CX c #EDCECC",
"ZX c #FCE3DB",
"AX c #EFE6CF",
"SX c #DCD9E2",
"DX c #D0CDE1",
"FX c #E5DEE3",
"GX c #E3E3E4",
"HX c #ECE8EA",
"JX c #FAE9E6",
"KX c #FAF9F8",
"LX c #F1EEF0",
"PX c #DEE2E0",
/* pixels */
"Q %...^ Y W R ! T Y W nXnXGXbXHXbXbXBXnXBXnXPXbXnXSXDX5 J %X9XxXDXnXmXPXmXnXvXvXwXoX~ r U T T E V T I Q ( Q ~ o.A E E { %.~ ( ~ ",
"Q Q Q ^ W | R ` ( / E AXnXGXBXfXnXnXSXSXSXSXDXDXnXnX&X4 U (.vX0X,X,X%X&XXX%X#X*X:X{ q 3 q X.=X=X=X=XoX}.OX ...V V W { V V { I I ",
"<XXXoX-X).(.@XAX> ` S mXJX4XyXvXgX7XgXyXyXgXyXyXjX].| & S >XjX>X@X>X@X>X).>X=X*X'.` , : , ).AXmXAXmXGXSXvXvX7X(.'.jX/.).(.(.8X.X",
"mXbXJXgX>X'.lXAX& F S mXmX>XgXlX`.`.`.>X>X`.`.`.>XY.S , x ].jX_.]._._.`.`.`.{._.Y.G k h k '.kXjXlXgXyXHXnXgXjXkXlXkX`.kXjXCXmXPX",
"5X6X>X'.lXkXkXkX`.aXkXjX* & lXjXaXaXaXaXaXsXaXaXdXsXdXkXaXdXdXsXsXdXdXdXdXaXsXsXaXdXdXsXsXdXdXaXjXkXNXO - AXjXjXkXkXlXsXlX>XR.1X",
"7X-X>X'.].H J.dXC G H G eXy p u F.G.F.F.F.C G.G.Z C G.C C Z G.F.Z H Z Z Z C Z Z C G.G.C G.G.F.G.F.N * * _., F H J.`.J.].Y.` ;X1X",
"fX5X).>X).H V '.- F G , p r.t.&.a a a g p p h k h p k h , , h k h h h h h h k k p k k h g g p g a a d d * & S F F ].F F F [ @X1X",
"oXqX-X7X)./.9 S : k F H.U.p.w.7.7.:.s a u a p l H.h H.G S H G G G G G F F G G l C 8.l 8.8.:.:.&.=.:.f f d _ Y.+.+.| S } (.+.).(.",
"/.*X=XOX| | E S : , S _.uXf.6.V.4.6.6.5.=.&.s g :.i.d NXG NXl p.t.r._.- ;Xp p.-.&.;.5.9.s.A.s.c.6.*.&.-.M Y.R.(.).>X).(.@X>X5XOX",
"$.#.X.+.E A V V : , G R.iXs.s.b.b.j.2.4.,.*.*.=.:.0.p.hXM NXa.=.0.s rX* !.a -.&.*.4.6.c.S.S.v.B.c.6.3.-.H.[ | /.| +.{ | X.{ +.$.",
"^ T T E q > : : > > S Y.iX;.V.b.x.k.g.g.2.1.1.4.,.w.t.MXm NX0.5.5.:.tXy eXf &.*.<.2.j.x.D.D.m.n.j.b.3.-.u.) ! { W W V W E e Y Y ",
"5 4 4 3 : > > 7 9 9 ` [ uXa.V.v.z.k.j.j.j.1.>.>.2.=.K.NX_ hXa.3.3.=.rX* eXg s *.2.j.j.n.D.D.m.m.z.g.4.-.n v c 0 > V V ; 4 q q $ ",
"1 6 4 4 7 6 6 6 9 9 ` j rX9.7.j.v.j.j.2.<.>.2.4.>.s.n CXv NXa.s.;.;.tX& eXd &.*.<.j.j.B.D.D.B.n.B.h.,.;.b v 8 w w 3 ; 4 6 # # 5 ",
"c K e e V c 9 w c A | j [.9.c.k.z.k.j.j.2.<.>.>.1.w.r.VXD ZXd.5.5.:.uX* eXz s *.<.2.k.z.M.M.m.n.k.j.1.-.u B x 8 e r c t 6 e w e ",
"! Q e e w e r e A 9 ) D U.9.c.b.x.z.k.g.2.<.>.,.3.;.r.VXD CX8.5.;.f iX- eXz s *.7.j.j.l.N.D.m.m.h.g.7.-.y B R c U T ^ Y U Y U T ",
"#X$X$X&X%X5X3X*X(.A , G p.9.A.v.z.z.j.2.<.2.7.6.=.=.I.VXv NXd.;.:.a tX& eXd d &.>.j.j.z.D.D.m.z.z.j.,.-.M ) R.3X&X*X*X:X&X&X*X3X",
"SXGXnXbXmXnXvX4XXXc - _ r.;.v.B.l.l.z.j.2.>.,.*.t.d.R.VX] VXn r.M b eX& 6Xy d f A.7.v.B.N.C.n.N.x.v.*.:.I.] T.bXGXbXGXPXPXGXGXGX",
"4XoXoX4XXX4X4X@.o.8 - P.r.5.b.z.n.n.z.k.g.>.s.*.q.!.VXJXv JXMXhXcXiXcX& ;X XP.u s 3.,.g.C.C.m.n.l.x.>.-.I.) O.yXqX0XqXqXwXwX0X0X",
"8X3X0XXX0XOX*X$.#.x - M r.f.c.z.m.l.k.g.4.,.&.=.Q.MXJXc R JXVXVXVXyX6X6X= O R.W.H.;.w.V.S.n.N.N.l.j.,.-.I.] #.:X2X2X3X&X%X%X&X2X",
"-X&XXXqXXX8X4X#. .8 8 m p.9.A.B.n.n.g.2.4.&.a !.iXx v KX%X' 4 A 2 8 L @ $X<X& O eXU.0.3.S.Z.m.n.B.h.,.q.N P.(.=X*X*X%XoX.X.XoX%X",
"5X5X8X$.vX$.3Xo.Q r x m p.9.c.B.N.z.<.>.w.s !.tX2 |.KXQ Y KXKXHXnXmX8X9XX $  .T.* rX~.w.A.S.B.m.B.z.1.0.N ] /.=X3X2X3X:X=X=X%X:X",
"#X,X#.#X%X&X,X}.( c = i H.a.b.z.k.z.2.,.;.g tX& T.FXL KXKX! q e ,XvXxX9X%XX.% @.R.& eXt.A.S.x.m.x.x.,.-._ ] /.:X*X=X&XOX.X.X=X*X",
"%X%X}.}.,X5X$XX.! r 2 k [.9.7.b.b.<.6.9.g tX& R.yXJ HXKX5XU U 7 Y nX0X9X%X*X@.  #XR.* uXf.V.j.Z.x.b.=.f I.} +.=X2X%X&XXXOX/.oX%X",
"OX$X5X%X#X$X|.$.U 8 2 j iXa.5.c.6.7.:.s H.pXO vX4 BXKX*Xr ! t X.-XnX9X/ % w @.X.  6XO MXrXL.V.j.2.1.5.n m ` T.@X%XoX:X#X*X#X&X:X",
"3X8X$X&X5X*X..T I J $ t MXu.i.-.s.;.y.p. X& yX. yXHX*Xw ( U Y %XHXzX..    o 1 |.-X= 1X& MXK.K.y.f.-.d d B c c K Y ( o...#.XX=X=X",
"/ Y  .X./  .( 0 J K 1 L CXVXMXiXuXuXeXW.W.- 7X  zX%X( o.Q T ( OXnX/ $ %   o   = -X. T.. CXZXiXcXuXrXE.R.m v c R U ^ Y I I E Y ~ ",
"( o.U r J 5 $ < 7 q w r nXR. Xi b b * & & -X  nXPXnX,X( t U Y ^ T = 4 %     o   x |.. JXL P.P K.b y * & & = 2 B $ 7 # 4 7 r V Y ",
"5 % 5 1 < 0 J Q ! K r ' JXVXVXcXiXeXeXE.T.yX  vX8XPXLX%X^ e 8 t 1 # 5 o w o o   O -X= vXJXVXVXcXtXtXE.P.x = 1 v e e w r 3 4 # 3 ",
"! o. .X.$X$XOX#X$XOXc x cXK.y.q.y.q.r.n  X|.1 9XvXKXKXHXXXX.t U 0 w $ % &XU   % X 8X. CXMXU.y.a.L.y.f b m L !  .( Q E ( U T V U ",
" .$XvXGXnXSXPXDXmX6XT.- cXy.t.a.5.:.8.g eX1XO vX; oXKXKXKX^ 8 e 0 % # @.3XOXU # 5 xX. CXMXu.d.9.q.-.f b [ ' T.OX..T T Y I ~ e ~ ",
"..4XnXnXzXxX3X9X,X6X! 2 CXM u.d t.8.r.d E.yX  vX6 t %XKX#XU w e 8 = 1 .  .%XOX..<X5Xo gXVXI.8.i.;.r.z b S ] =XnXbXbXPXGXvX2XT Y ",
"..GX4X0X8X#X3X3X<X<XO.2 ZXVXMXMXuXtX_.W.;X;X. qXr 1 T ( e ^ e w ^ 4 1 o o X.#.@.$XxX. AXZXhXhXuXuXrXE.I.[ R T.yXoX%X*X2X=XOX7 Y ",
"X.nXqX,X#X&XoX8X|.6XR 7 JXR.R.b i d y y . 3X% qX^ w e $.q Y U $XbX..3   o $ X.X.:X/.o BXv P.I.I.p * y * ) O.T.+X3X-X%X4XXX..I U ",
"o.GX3X,X,X$X4X4X+XqX/ 6 mXJXZXMXuXuXQ. XW.% @.. xXX.A T ( r -XnXnXnX' o       #.4X  qX. VXZXiXMXiXuXE.P.) O.O.+X%XqXoXoX4X{ 4 ~ ",
"%.SX5X4X3XoXzX$X&XT.' * cXL.f.A.w.w.q.K.;X& @X% fXmX=X/ e 4XLXLXHXvXo.  o   o OX2X@ fX& hXU.~.*.0.0.q.n m O.T.*X&X=X=X3X2X~ ~ r ",
"X.mXvX=X,X5X%X8X+X7X) B tXL.f.5.V.e.e.&.d yXO fXe bXKXKXLXKXLXLXGX( 9 .   $ XX%.@ yXO MX!.d.4.c.A.1.=.f D } @.#.oX4XoXXX0X^ w e ",
"o.FX8X3X3X*X9X<X8X3X' y [.s.g.Z.x.x.2.e.-.eX* yXqXA KXHXKXKXKXLXPXo # o # XXX.$ *XO.& MX!.A.Z.N.l.g.7.t.j x / / ~ T ~ ^ T q V 0 ",
"%.nXzX%X5X0X}.,X}.<X) - [.9.b.z.x.x.j.,.&.p.rX* CXfXE KXKXKXLXFXbX/ 4   OX^ . o.#.& eXU.A.S.z.n.n.k.7.:.y - w 5 7 $ 0 7 $ 3 6 t ",
"o.SXqX*X*X,X$X,X6X<X[ y !.7.c.z.l.k.g.1.*.:.~.uXB VXKXW K HXLXLXGXBXqX%X$ . T.L * eX!.9.A.S.Z.z.k.g.6.&.p , w c w 0 V q I U 4 U ",
"( LX9X4X<X#XqX,X5X-Xc * U.9.v.k.k.j.<.4.,.*.a.~.cXx S KXHXO.c r 8 = # = oX-XO & !.!.a.5.S.Z.l.l.z.g.7.&.d ) ! @.OX$.@.$..X$.V ^ ",
"}.mXzX|.%X,X%X8X,XT.x y p.3.c.k.z.h.g.g.7.*.*.;.W.iXyXR ( JXFXVXCXFXyXo.. O W.Q.U.a.*.V.S.C.N.m.n.h.>.-.M ] #.vXvX0XvXnX0X.XI ~ ",
"^ SX0X8X0X3X,XoX,X' 2 i p.3.b.z.n.k.g.2.2.>.*.:.i.n eXZXv JXcXVXMXcX1XO ;XyXI.i q.0.4.v.Z.C.B.n.k.b.,.-.u.] |.HXnXnXPXmX%X%.q ( ",
"%.HX8X&X3X#X4X8X<XK & j r.s.c.z.z.h.g.g.1.1.*.*.:.y.n CXD ZXK.z i n iXO  Xb u q.=.6.b.x.N.N.m.m.l.j.7.s I.] }.nX0XvXfXwX$.Y 7 Y ",
"Q 8XzX5X,X9X}.%X$XR 8 i f s.v.z.k.k.h.h.2.1.,.3.6.;.r.NXD NXU.q.0.d tX& eXi f =.,.1.j.x.M.N.m.m.n.h.,.s I.] #.,X=X4X*X3X@.%.6 w ",
"! nXOX$X4X}.oXX.#.K B i r.9.v.k.z.k.z.h.g.2.1.1.4.=.L.jXM MXL.3.=.z uXy eXd =.*.1.j.x.n.N.N.n.m.z.g.,.-.D P.|.,X:X8XoX2XX.^ 7 r ",
"J qX9X5X0XoX( T ( 8 2 B i.9.c.h.n.z.h.g.g.2.1.,.1.w.d.MX_ MXa.w.w.s tX* E.f s *.1.j.k.n.N.M.m.m.n.g.7.;.M ] OX,X*X0X%X3X$.E 4 U ",
"Y |.#.oXI ..( Q e 1 2 N t.5.b.x.z.l.h.h.j.2.1.1.4.3.d.iXm NXw.6.,.q.rXy eXl &.>.1.2.h.B.C.M.n.n.l.h.>.-.N ] T.$X@.*X.X2X#.~ # w ",
"J w 1 # < 0 e e 0 5 2 m 8.9.b.x.z.l.h.h.j.2.1.1.1.4.L.cX) MXa.4.3.&.tXu eXg &.*.<.j.k.z.M.N.m.m.l.j.,.;.K.P.T.OX&X2X#..X$.{ 4 r ",
"' ..( T e 3 6 6 0 7 x M f s.b.j.z.k.k.h.j.2.1.1.>.e.t.cXM MXa.6.,.&.uX* eX-.s >.<.2.h.z.M.C.m.m.z.k.,.8.D P.|.|.<X%X@..XX.I 3 I ",
"0 Q U U ( Q Q w 0 1 v N g s.b.j.k.h.h.g.<.1.1.,.>.w.y.MXM VXa.3.3.=.rX* eXg s *.>.j.k.B.C.M.m.m.n.j.>.-.M P.|.OX#X%X#X%X$.I # J ",
"! #X3X5X4X3X*XoXo.! ) _ g s.c.h.z.h.g.g.2.1.1.,.1.w.y.VXm MXa.6.*.-.tX* eXf s *.<.j.k.z.M.M.m.n.l.h.>.8.M ] $.#.@.@.@..X..r 3 w ",
"Y ,XqXFXPXLXSXPXxX9X<X XU.s.v.B.k.k.h.g.2.<.>.>.>.=.y.VXm VXt.7.=.&.tX& eXd &.*.<.j.h.z.C.N.m.n.n.k.<.;.n v r e U e w J V 6 6 w ",
"! 0XSXzX5X*XqXDXFXFXmXcX[.f.2.h.j.z.g.<.<.1.1.,.,.0.p.VXm MXa.3.5.&.tX& eXf s *.>.g.j.B.C.C.B.m.n.l.4.=.i - 3 3 # < 3 4 4 7 r V ",
"J 9XSX3X9X,XDX9X$XyXxXcXhXf.9.c.b.4.7.>.,.=.3.=.*.0.n VXm MXt.5.:.-.tX& eXd a &.7.7.j.j.Z.S.B.n.x.b.3.s i 2 7 q 0 q 6 6 0 r E E ",
"! ,XFX3XOXzX}.}.9X*X;XR.pXr.p.8.0.0.0.-.-.q.-.-.-.y.N VXm NXy.q.q.z pX& ;Xi b g ;.=.3.6.S.S.v.v.4.6.;.d y 8 0 q J I q e V I E E ",
"Q <XnXvX,XzX#X3X$X$X;X;X1XW.H.H.u.K.u.K.y.u.n n f z y 6X& 1Xd z z u [ % ) & y u u g q.0.L.A.6.s.w.0.f i 2 r I E I Q I ~ { E { { ",
"Y 4XqX&X%X*X}.$X,X9X2X8X4X1X XR.R.R.R.W.R.Q.P.P.P.M [ R R [ P.M _ B 9 A S W ` D P.I.H.M d n g f l j N S ` +XnXGXnXmXqX*X+.E T ( ",
"Q 9X&XX.%.$./ / %.}.I / ! O.' ] ] | ] ] P.} P.} R.] ] ` ' ] ] [ ) 2 : V q +.(.R.T.} P.Y.] ] ` } Y.R.Y.R.#.-X*X6X%X,X%XqXPXOX7 E ",
"J OX( w 0 I e w J J J V q A e 8 q q q J 9 r r r 6 c c c R c 9 9 x 9 ; V { :XwX5X} ).T.| +XW S wXwX(.5X-X6X-XyX|.zX%XOX%X%X .6 ^ ",
"r ( 4 4 # # # 4 @ < 3 < > $ 6 $ q 3 3 3 3 3 ; 3 % ; 1 % t % : ; ; 9 ; $ V I V V F ] | S } A | nX2XwX:X7X@X5X-X6X/.wX7XoX$X! $ X.",
"! K 8 K w 7 7 w r 0 0 0 ; 5 0 6 5 q 3 3 q 3 3 5 3 V ; q $ r ; r 7 t t 9 V E I V 9 = # 6 5 1 0 ( ( U / / ( U ( ( ' E ' ^ ' Y 7 c ",
"( Q Y ( T ! ! Q Q Q K ! e J r e J J J q J J I J r 6 E 3 I 6 e 8 r w e e V { { E ! r w e w K K Q ^ 6 $ 4 # 1 > 3 : > 7 = > 1 1 / ",
"1 1 4 4 = 5 1 1 1 1 1 5 < < < < 5 < < < < < < 5 5 5 3 5 3 5 5 5 5 5 5 < # 5 7 3 6 = 6 5 1 < 5 4 5 5 < 5 6 3 < 3 4 3 4 # 5 5 # < ",
"X .   . o     o X + + + + + + + + + + + + + + + + + X + + X X X X +   @ X X X X X + X X X + X + + + @ @ + + @ X X @ + o @ X X @ "
};
