/* XPM */
static char *_445930a8131480c9ee84def950a569dhZAxWBaONNDqjJ8H[] = {
/* columns rows colors chars-per-pixel */
"64 64 149 2 ",
"   c #5A3D28",
".  c #5C442B",
"X  c #5D4C2D",
"o  c #5D532E",
"O  c #5E5A2F",
"+  c #5C4730",
"@  c #5D4A33",
"#  c #5D5133",
"$  c #5E5D30",
"%  c #63452E",
"&  c #634A2E",
"*  c #61512E",
"=  c #664730",
"-  c #684730",
";  c #654B34",
":  c #6B4B33",
">  c #654D39",
",  c #6A4E39",
"<  c #714F36",
"1  c #744F38",
"2  c #635433",
"3  c #6B5434",
"4  c #625D32",
"5  c #6C5B35",
"6  c #65533B",
"7  c #6B513A",
"8  c #655A3A",
"9  c #685A3C",
"0  c #735137",
"q  c #765339",
"w  c #7A563B",
"e  c #7E593D",
"r  c #5A7E2D",
"t  c #5F6431",
"y  c #5E7C32",
"u  c #626533",
"i  c #66633A",
"p  c #69633C",
"a  c #696C3D",
"s  c #765740",
"d  c #765842",
"f  c #7B5A42",
"g  c #7D5E48",
"h  c #665B54",
"j  c #695E54",
"k  c #665E5A",
"l  c #696440",
"z  c #7F6048",
"x  c #6A615B",
"c  c #73665C",
"v  c #76685D",
"b  c #7F7167",
"n  c #815B3E",
"m  c #845E41",
"M  c #885F41",
"N  c #866143",
"B  c #8C6445",
"V  c #826249",
"C  c #8D6749",
"Z  c #8D684B",
"A  c #906747",
"S  c #916847",
"D  c #926748",
"F  c #946A49",
"G  c #9A6E4C",
"H  c #9D714E",
"J  c #926D51",
"K  c #967154",
"L  c #9A7251",
"P  c #A1724F",
"I  c #A57651",
"U  c #A87753",
"Y  c #A77853",
"T  c #AB7B55",
"R  c #B07E57",
"E  c #B07F58",
"W  c #83766C",
"Q  c #89776B",
"!  c #86786E",
"~  c #887A6F",
"^  c #847B74",
"/  c #897B70",
"(  c #59852D",
")  c #598D2E",
"_  c #56962C",
"`  c #58992E",
"'  c #5F8433",
"]  c #5F8B34",
"[  c #5E9434",
"{  c #618E36",
"}  c #66833A",
"|  c #68863D",
" . c #678C3C",
".. c #698C3D",
"X. c #619537",
"o. c #65963A",
"O. c #6A923E",
"+. c #649E3A",
"@. c #699B3D",
"#. c #61A137",
"$. c #64A33A",
"%. c #69A43E",
"&. c #67A83D",
"*. c #68A93E",
"=. c #6C9641",
"-. c #6C9C41",
";. c #739C46",
":. c #7A914D",
">. c #7C9B4D",
",. c #6DA441",
"<. c #6CAB41",
"1. c #71A444",
"2. c #71AB45",
"3. c #7AA64B",
"4. c #7BAA4D",
"5. c #72B047",
"6. c #75B44B",
"7. c #7DB24E",
"8. c #79B54D",
"9. c #77B84D",
"0. c #79B94F",
"q. c #7FA551",
"w. c #7CAE51",
"e. c #7DB752",
"r. c #7BB851",
"t. c #7FB954",
"y. c #839C54",
"u. c #83A554",
"i. c #86A756",
"p. c #87A658",
"a. c #87A958",
"s. c #88AC59",
"d. c #80B250",
"f. c #80B450",
"g. c #81BB56",
"h. c #84B855",
"j. c #89B25A",
"k. c #8CB25D",
"l. c #87BA58",
"z. c #87BD59",
"x. c #8ABD5B",
"c. c #8BBD5C",
"v. c #8CBE5C",
"b. c #8EBF5E",
"n. c #8BC05C",
"m. c #8DC15E",
"M. c #8FC060",
"N. c #8EC260",
"B. c #90C361",
/* pixels */
"6.6.6.5.9.9.6.6.6.6.6.5.*.<.*.<.*.*.%.*.1.%.%.%.+.#.#.#.<.<.<.5.9.0.0.0.9.0.0.0.<.5.<.2.*.*.*.%.*.*.*.*.$.#.#.#._ _ _ ` &.*.*.*.",
"6.6.6.6.6.9.9.6.6.6.6.9.<.*.1.%.1.*.*.%.1.%.%.%.+.#.#.#.*.*.<.<.9.0.0.0.9.9.0.0.5.2.5.*.*.*.*.*.*.*.*.*.#.#.$.#._ _ _ ` &.*.*.2.",
"5.6.6.6.6.6.9.6.6.6.5.5.2.*.*.*.*.%.*.*.%.%.1.%.#.#.#.$.*.5.<.<.9.9.0.0.9.r.9.9.5.2.2.<.*.*.*.*.*.*.*.*.$.#.#.#._ _ _ ` *.*.*.*.",
"6.6.5.6.6.6.6.6.6.6.9.5.2.*.2.1.%.<.1.%.O.@.O.@.+.#.+.$.*.<.<.*.9.9.9.9.r.r.r.r.5.5.2.2.*.<.*.*.*.&.*.*.#.#.$.#.` ` ` ` *.*.5.*.",
"9.6.6.6.2.2.2.2.h.l.h.h.f.7.7.7.3.3.3.;.u $ t t o.$.$.+.$.+.#.$.%.&.%.<.z.n.n.n.v.v.x.x.6.6.6.2.$.#.+.+.$.&.&.&.$.$.$.$.*.%.%.%.",
"9.6.6.6.2.,.1.2.h.l.l.h.f.f.f.f.3.3.3.>.4 o O O o.+.@.+.+.+.+.+.$.%.$.<.z.m.m.m.b.M.v.v.7.6.6.6.#.$.+.+.&.&.*.*.$.&.&.$.*.%.%.%.",
"6.6.6.5.2.<.1.2.h.l.l.l.f.f.f.d.3.3.3.>.4 # # t o.$.@.%.+.#.+.#.$.$.%.*.z.m.m.m.M.v.c.c.8.6.6.5.$.+.+.+.&.*.*.*.&.&.*.&.%.%.%.%.",
"6.6.6.8.-.;.-.1.h.l.l.h.d.7.7.7.3.3.3.;.4 O o $ o.@.+.@.X.X.X.X.%.&.%.<.z.m.n.n.M.v.B.c.8.8.7.6.o.X.X.X.$.$.&.$.$.$.$.%.@.+.o.o.",
"q.q.q.>.a i i a i.k.k.j.1.<.,.,.,.@.,.o.O X X o  .@.O. .t O t t -.,.,.2.e.t.g.g.N.B.B.N.k.j.j.i.u 4 t t ( _ ) _ X.X.X.{ O O O O ",
"q.q.u.>.i 8 8 p p.k.k.s.,.,.%.,.%.@.%.O.O X X O  .O.O. .O o o O ,.<.2.2.e.t.t.g.N.B.B.B.k.k.k.i.4 * * O ( ) ) ( X.` X.{ O X X o ",
"y.q.q.>.i 4 4 p p.k.k.s.,.%.%.%.%.%.%.o.O X + o  .O.O. .O O o t -.2.1.2.e.t.t.t.B.B.B.N.k.k.k.p.u * * O ( ) ) _ [ X.X.{ O X X o ",
">.>.>.:.l 8 8 i y.p.p.u.-.@.@.@.@.%.@.O.o X X o }  .{ ' O o o O -.,.,.1.4.w.w.e.c.c.c.c.a.i.a.y.5 * * * r ( ( ( ) { { ( O * o * ",
"s l > l x x x x 9 8 8 8 4 4 4 u O.@.;.O.# X & X X X X ; X X . o ] ]  .' t t t t =.;.=.=.p 9 p 9 3 < < < * * * o X o X o 3 < < : ",
"@ > @ > x x x h > ; ; ; 2 * * 4 ..@.@...* & X X . . . . . X . o ' ] ] ' t # o $ =.=.=.=.8 6 2 8 < 0 < < & . . . . .   & 0 0 < < ",
"> > > > j x x x > ; ; ; * * * 4 ..;.-.O.2 X X & . . . . . . . o ' ] ] ] $ # $ t | =.=.=.i 2 6 2 < 0 0 < & X X . . .   . < < < < ",
"6 > @ s j x x j 7 7 , 3 3 5 3 5 ..O...| 4 & ; ; + = . % & X . * y ' ' y $ # # O } =.| } 8 8 6 6 < 0 0 < & & & X X . . & < q 0 < ",
"m m M M d d d f B C B D G P G G q 3 5 5 e N m m 1 1 1 0 < : : : X o X X .     . @ @ # # h j j h w e w f m n n n - % % % 1 1 n 1 ",
"B B C M d s s f B D D D I U U P 3 : : : N B B N w q q q < < < <                 + + . @ h k k j f e f f M M M M % % % % 1 n n 1 ",
"M B M V f s e s D D D D I I U P 0 & 3 3 m B B N w q q w < < < < . . . .         + + + ; h k k j d w e f M M M m % % % % 1 1 1 n ",
"M M M M w w 1 n A D D D I I I G 0 3 : 3 N B B N q 1 1 0 < : : : . .   . .   . % + @ % @ h h h h d f w f m M M n - % % - n n n n ",
"n n n n - - - : B D C D D G J D f e e e B B S B - & - % % % % % . & % % < 0 1 < 0 q q 0 , , ; > q w d w e e e e w 1 1 n G U U P ",
"w w w w - = % - B C A A D G J D f f f f B B B N - % % % % % % % . . % % 1 q 0 q q w w q : - % , q w q w e e e e n w n n U U T U ",
"n w n 1 - % % - B D D D G G J D m f e f B S S N - & % & % . & % % % % % 1 q w q q q w q - - - - q q w q w e e e w w 1 n U T T T ",
"n n n n : - % < M D M D D D D Z m g z z B B B N : % - - - - : : - < - - 1 w q q n f e f 1 < < < q q q w e e n e w w n n U U U U ",
"P P I P e w w w n n n n V m m V ! ! ! W V e f m w q q e G I P P P P Y H n w n n P U U U U U P P n w w n M M B M n n n n G G G G ",
"U U U P n w w w w n n w m g V V / ^ / ! z f f f w w w n I T T T T R T Y n n n n U R R U T U R U M n n n B B B B n n n n G G G S ",
"T U U I n w w w n n n w m m m M ! ^ / ^ z f f f w w w e U T T T T T T U n n n n U R R R T T T U n n n n B B B B n n n n S G G S ",
"P P P P n w w n n n n n M M M D Q / / Q V f N f w w w e P U P U U T U P n n w n U R U y.U T U U n e n n M B M n n n n n S S G G ",
"n M m n n w n n P U I U T T R U K J K J D C A C w w w n n n n n S S F S < - < 0 F G G G G G G G n w w w n w n n n A S n G S S G ",
"n n n n w n n n U R T T R y.R U L L K F F D A A n n w w n n n n S S S B < - - < S F F F G F G S e w w w w w 0 n A A A A S S S S ",
"n n n n n n w n I R T R R R R R L J J L F F F A w w w n n n n n B S S B : : : : S F G S G G G S e w w w n w n n A n A A S S S S ",
"n n n n n w w n P U I U R R R R G F J F D D S A n w w w q w w w B B B B 0 : 0 0 S S S G S S F S e w w w 0 n w n n A A n A S S S ",
"B B B B e e w e n n n n A G G S n n n n B A A B w w q 0 % % % % w e e e M M M B A S S A n n n n w e e e 1 n 1 1 < - - : n n w n ",
"S B B B e e e e n n n n A S S A n n n n B A B B q 0 q < %   % % w w w e M B S S S A A C n w n w e e n e n w n 1 - % - - 1 w w 1 ",
"B S A B e e e e w n n n A S S S n n n n B B A B w 1 q < % % . % 0 w w e B B M S S A S B e w e w e n w e 1 w m 1 - % % - 0 w w w ",
"B B B B e e e n w w w n B A B n n w n n B n N n 0 < < < & % & & w w w w N B B B B A B B n w e n n M n n n n m m : - - : w w n w ",
"e N e N B B B M - - - - n n n n w w n 0 - % - % - - & - 0 0 0 q w w 0 w n n n n n n n n w w w n I T R R U U U U z w w z M B B B ",
"e e e e B B B M - & - - 0 n n n w n n 0 % % % % % % % - 0 q q q 0 0 w q e n n n n n e e w w w n T R y.T R R R T z e z e B A B B ",
"e e e N B A B B : % % - n 0 n n 1 n n 0 % % & % % & % - q q q q w 0 q w n e n n n n n n w w w n T T E E R R R U m e e z B B A B ",
"n e e e B B S M : - - - n n n n n n n n : % % - : : : : q w w w w 0 w 5 n M N N n n n n w w w n I T T T U R U U V z z z B B B B ",
"e e e n S S B B 1 n 1 n G U U U U U U U n n n n G P H G S B B B : : : 0 L T Y Y Y Y Y L < - - 0 B D F D L L I K W ! ! W V s m g ",
"e n e n S S S S n n n n U T R T T T R T M n n M P T U Y F F F S : : - 3 I T T R T T T I < - - : M D D D H L L K ~ ^ ^ W g s s s ",
"e e n e S S S B n 1 n n U R T R R R R U M n n M P U U P F F S B , ; - 0 I T T T T T T I < - - : M D D D K L K L ~ y.^ W g m s d ",
"N e n N B B B B n n 1 n U T T T T T T U B M M M P P P P F S S B 7 , 7 7 I T T T T T T I 1 : - : n A M B J H H K W W ^ W d s s s ",
"B B B B 5 n n w 1 n n n D G G G G P P P U U T I A B A A Z Z Z Z c c x v J L G L F F G S w 1 0 0 : : : < M Z Z Z V V V g , > - - ",
"S B S B e 5 w w n n n n D G D G P P G P R T T T A B B M C Z Z Z v c c v Z G J J G F F D w w w 0 - % - - M C C M V d m m - - - - ",
"S B S B n w w w n n n n D G G G G P P P R y.T T A M N B C F C Z v c c v J J J J F F G D w 1 q 1 - % % - M C D M m m m d - % = = ",
"B B B M 0 q q q n n n n D D D D G G P U U T T U S A C A C C C C c c c v Z F F F F F D D w w 0 q - - - - M D M M V V m m s , - s ",
"w w w w : - - : M M M B n n n n D D D F H H H H Y Y Y Y M N n n d d d d w e w w n n n n q w w q q 0 0 q n M m B I U U U U R U U ",
"w q q 0 - & - : M B B B n n e n C D C D H H H H Y T T Y M n n n d q d q q q q w n w n w q w 0 0 q q 0 q n m m N U R U R y.R R R ",
"w w w 0 : - & & M B B M n e e n C C D D G G H H T T T T M n n n 9 e w q q w q w w n n n w 0 q w 0 w q w n m m N U R R R R R R R ",
"0 0 w q : : : 4 M B B M e e e n B C Z D F G J G T T Y P B n n n d w w q q q w w n n n n w 0 q q 0 0 0 q M N M B U T U T U R R R ",
"n w w n M M N N e e e e e n w e d d f d e e e m F F G G B B B B e w w w 1 - < 0 D P P D < - : : w w w w P I I I P P P P P P P P ",
"w n e w B B B B e w q e 5 n e w d s d d w e 1 e S F G S S S D B e w e w : < - 0 P P P P < - - : w w w n P T T U P P G G P G G G ",
"n w w n M B B N e q w w e e e w f s d d w w s n S S S S S B S B e w w w : - - 1 P P P G < - - : w w w n I T T I P G P P P P G G ",
"n n n n M M N M e q q w e n n n d d d s w 1 w s A S S S M B B M n n n n q 0 0 w G P P G 1 < : < w w w w P I I I G P G G G G G G ",
"A A A B n w e w 3 - : 0 H P P P n w e w = = = = q d w f < : : 1 P Y T Y P U P P A M M M M M M m e e e e N N M B D D F F F D F F ",
"D D D A w w w w : : : : P T T P m e e w = +   = q s q 9 - , - 1 Y T T T R T y.T M n m m B B B B n e w e n n n n D D D D S S F C ",
"D D A A n w w w : - - 0 P T T P m e n 1 = %   = 7 q q q : : - 1 P T T T R R R R B m m m M B B N w n n e n n n M D D D D S F S F ",
"D D D B n w w w q < 0 w H I T P m n n n = = = = d d d w : , : 1 P T T T U U U U M n n n B M N N n e n n n n n n B D D A B N C B ",
"D F S A n e e N G H H I P P H H D B B M s s s d b b b b d s s s D G G G P P P D n w e e n n e n B A A C A A A B n n n w : & - - ",
"D F F A n e n n I T Y Y H H P G D D D B s s s d b ^ :.^ m s s m D G G G G G G G e e w w e e e e A A A A A A S C n w w w & & % % ",
"S F A A n e e m I Y I I P H H H D B D B m s s g ^ ^ ^ ^ s s n n G G G G G G G D e w w w e e e n A D A S A F A A w w w w - % % & ",
"Z S F A n n e m I I T I P H P G D D D B s s s h b ^ ^ ^ n 1 n n D G G G G G P G e e w e e e e n C D D D D A A B n e w w ; % % % "
};
