/* XPM */
static char *_56d6afef26644fc8dc5d0e3cf5b1297qIqT4AG05bAhu2pO[] = {
/* columns rows colors chars-per-pixel */
"64 62 237 2 ",
"   c #020202",
".  c #0A0A0B",
"X  c #080708",
"o  c #151414",
"O  c #1D1C1C",
"+  c #191817",
"@  c #120F0F",
"#  c #221E1C",
"$  c #261D14",
"%  c #2B190D",
"&  c #1F211F",
"*  c #23221D",
"=  c #272417",
"-  c #36251A",
";  c #1D1D22",
":  c #151F20",
">  c #211F22",
",  c #1C2427",
"<  c #242324",
"1  c #2C2B2B",
"2  c #272628",
"3  c #332D2A",
"4  c #363329",
"5  c #2A2C31",
"6  c #322F32",
"7  c #343333",
"8  c #39363A",
"9  c #3C3A3B",
"0  c #373637",
"q  c #480B03",
"w  c #580901",
"e  c #501506",
"r  c #660805",
"t  c #641509",
"y  c #75140F",
"u  c #512C16",
"i  c #67280A",
"p  c #692716",
"a  c #773917",
"s  c #703311",
"d  c #453827",
"f  c #583B27",
"g  c #413D3C",
"h  c #483C32",
"j  c #52322B",
"k  c #693A25",
"l  c #753524",
"z  c #3C413E",
"x  c #79471C",
"c  c #5A422C",
"v  c #46433A",
"b  c #574635",
"n  c #68462A",
"m  c #75482B",
"M  c #674833",
"N  c #774835",
"B  c #695239",
"V  c #77573A",
"C  c #76502D",
"Z  c #3E3C41",
"A  c #413E41",
"S  c #444343",
"D  c #4C4C4C",
"F  c #494847",
"G  c #514E4B",
"H  c #54534D",
"J  c #4E4D53",
"K  c #514E50",
"L  c #545354",
"P  c #5C5B5B",
"I  c #585757",
"U  c #4F5252",
"Y  c #785A46",
"T  c #655950",
"R  c #766756",
"E  c #5E5C61",
"W  c #615F61",
"Q  c #5D6467",
"!  c #636263",
"~  c #6C6B6B",
"^  c #696767",
"/  c #736E6B",
"(  c #776C65",
")  c #73716C",
"_  c #7C736A",
"`  c #6C6E71",
"'  c #716F73",
"]  c #747374",
"[  c #7C7B7C",
"{  c #787677",
"}  c #5C615D",
"|  c #83380E",
" . c #853A25",
".. c #8B1D1E",
"X. c #89481C",
"o. c #934B19",
"O. c #874827",
"+. c #8B542A",
"@. c #97562A",
"#. c #895837",
"$. c #975A36",
"%. c #974C29",
"&. c #A45929",
"*. c #A95B36",
"=. c #98633A",
"-. c #8C643E",
";. c #A3643C",
":. c #A96739",
">. c #B3683B",
",. c #B16A37",
"<. c #875B44",
"1. c #965E41",
"2. c #925C50",
"3. c #8A6547",
"4. c #976647",
"5. c #896A58",
"6. c #946C54",
"7. c #93745C",
"8. c #A86A45",
"9. c #B46D45",
"0. c #A9744A",
"q. c #B3744B",
"w. c #B77548",
"e. c #A97755",
"r. c #B77A55",
"t. c #A96E53",
"y. c #837B78",
"u. c #8F7868",
"i. c #B27666",
"p. c #B35C41",
"a. c #C5794B",
"s. c #C47D53",
"d. c #C3684D",
"f. c #CB7E67",
"g. c #C6773C",
"h. c #BC8256",
"j. c #AE825D",
"k. c #988778",
"l. c #83817E",
"z. c #A88165",
"x. c #B98769",
"c. c #A68876",
"v. c #BB8D75",
"b. c #B9947C",
"n. c #B09178",
"m. c #C78559",
"M. c #D4885A",
"N. c #D4854E",
"B. c #E39259",
"V. c #C78A66",
"C. c #D78A64",
"Z. c #DB9568",
"A. c #C89374",
"S. c #D79A79",
"D. c #C78E71",
"F. c #E69567",
"G. c #E59C77",
"H. c #F49E61",
"J. c #DDA17E",
"K. c #E8A376",
"L. c #F7A976",
"P. c #FAA76B",
"I. c #7D7C82",
"U. c #817F81",
"Y. c #858484",
"T. c #8D8B8C",
"R. c #898687",
"E. c #938D8D",
"W. c #9A8D87",
"Q. c #9A948B",
"!. c #8D8D90",
"~. c #928F92",
"^. c #949394",
"/. c #9A9594",
"(. c #9B9996",
"). c #969599",
"_. c #9A9799",
"`. c #9C9A9C",
"'. c #969999",
"]. c #8D908E",
"[. c #A68D83",
"{. c #AC9284",
"}. c #A7958A",
"|. c #B69887",
" X c #A49692",
".X c #A49A94",
"XX c #A29C9C",
"oX c #AB9B98",
"OX c #B39C94",
"+X c #A8A19C",
"@X c #B7A299",
"#X c #9E9DA1",
"$X c #9A9FA9",
"%X c #A19EA2",
"&X c #A4A3A4",
"*X c #A9A5A5",
"=X c #ACABAB",
"-X c #A8A6A8",
";X c #B2ADAC",
":X c #B1AEB0",
">X c #B4B3B3",
",X c #BCBBBC",
"<X c #B7B7B5",
"1X c #9DA1A3",
"2X c #C69C86",
"3X c #D59892",
"4X c #C9A28B",
"5X c #D4AA91",
"6X c #EAAC89",
"7X c #FAB688",
"8X c #F5BA96",
"9X c #EAB395",
"0X c #D4B9AB",
"qX c #E8B8A8",
"wX c #E29C9E",
"eX c #C3C3BF",
"rX c #FAC6A7",
"tX c #EFC6B2",
"yX c #FFC094",
"uX c #BEBEC2",
"iX c #C1BFC0",
"pX c #C4C4C4",
"aX c #CCCBCC",
"sX c #C9C7C7",
"dX c #D4D3D4",
"fX c #DCDCDC",
"gX c #D9D8D7",
"hX c #D1CFD1",
"jX c #F7D5CB",
"kX c #E0DEDE",
"lX c #F6CFC7",
"zX c #E3E2DE",
"xX c #E2DFE3",
"cX c #E4E3E4",
"vX c #EBE9EB",
"bX c #F2F0F1",
"nX c #DEDEDE",
/* pixels */
". 8 W L H L } I G H I } } D L J G H G F 4 2 + < 2 D S Q L J F F F F U z F ~ I U Q E E I I U J E J J L E E Q I E U I J E J J J J ",
". ^ hXfXnXfXnXzXzXzXvXgXdXcXcXvXkXvXkXkXgXkX&X] 2 D P `.uXfXnXfXnXfXgXnXfX&Xl.U Z S J I.$XcXcXiXuX$X).] ] P Q D S z Z Z J U S E ",
"  L vXcXfXeXdXsXeXaXaX<X).' I.' y.U.{ [ { [ ] y.{ I.] { ' ' ] { ] ` ` ] { { ` ` { { ' { ` ' ' I.U.{ ' { ' ^ !.pXvXvXxXxXnXsXpX<X",
"X J cXgXaXR.].=X+X<X+X+XU.Z E J A A D F H g 0 6 5 6 8 Z Z Z Z Z Z 0 z Z 7 S 1 : 5 5 + ; : < : ; + ; , + ; < ; xXxXvXdXxXfXnXzXnX",
"X J aXaX&X>X*XY.T.=X:X&XT.W ^.~.#X#X:X%X%X^.XX).$X#X%X#X#X_.`.#X#X#X1X`.&X1X*X&X'.~.'.-X'.#X1X`.-X#X#X#X&XE o { ;XXX/.l.:X*X^.^.",
"  P ,XiX'.-X`.`.l.-Xy.`.^ A T.~.`.^.~._._.XXXXXX~.).%XXX#X_.XX&X#X).&X`.'.'.).&X-X^.#X).1X^.`.^.#X^.).#X).F 8 ' [ T.].&X] '.`.^.",
"X P >XaX`.=X&X(.:X^.`.Y.R.D _.*X%X`.%X*XXX%XXX/.XXoX_.XX_.XX).(.`.).`.'.`.=X^.!.^.%X^.!.!.1X`.`.).'.&X`.).I + I.(.,X(.&X(.=X&X1X",
"X I ^.uXR.1XT.1XY.=XT.:XY.A `.^.(.T.XXXXXXQ.^.(.XX*XQ.U.W K 9 9 I L F L ' R.*X&X`./.&X;X*X`.XX`.#X#X'.#X`.L 8 ` -X~.#X=X`.^.(.E.",
"  D Y.pX'.U.!.!.`.R.T.E.' D XX`.XX/.*X/.XX.X.X+X%XE.^ F v < * = + + $ < z = z F [ '.'.'.^.).^.'.).).`.).#X^ > W *X&X`.(.:X%X&X`.",
"  7 ] gX-XT.$X0X`.`.T.&X] G ).*XXX/.XXQ.(.W..X+X XR h - - - G b F g g 3 = = . = Q ].=X`.#X#X'.#X&X#X&X%X#XE 2 !.Y.^.:X&XR.R.&X`.",
"X < D <X^.)./.`.R.T.^.>X[ S `.*X(.XXXX X+XW.}.[.|.[.R f d h 9 H { y.H v H z v z   1 Y.-X#X#X#X).#X`.)._._.W ; ^ `.^ / L { I ! F ",
"  1 Q >XR.*X-XXX^.^.`.>XU.9 *X^.XX%X`./.+XOX|.|.0XqX0X0XY c.k.u.y._ R 3 H ) } B 1 * L ].).#X#X#X).1X#X_.#X` > F I P I P I P A D ",
"  7 D [ L P I K K W W Y.{ A &X^.`.`.XX/.Q.OXc.|.tXqXtXrXtX5.k.u.b R 4 = b } v z = = 2 ) &X'.).%X`.1X`.`._.W 6 A L 2 6 6 2 o > 2 ",
"  7 1 0 > > 0 F L ! K D [ 9 `.XXXX`.`.XX.XOXn.5X6X9X8X9X9Xe.4Xu u b - = z z 4 z = & @ 0 *X`.%X`.#X`.^.`.#XI > > > @ 1 # + # 6 o ",
"X P 1 O o + O O o 2 1 1 Y.g `.^.%X`.`.`..X@X5X9X9X8XrXrX6XS.9Xe n f f u d - 4 v = * & 4 '.~.1X_.).&X1X1X_.W + 2 6 0 g 0 9 6 8 A ",
"  '.Y.` W K A g 1 2 O 2 ^ 9 `.`.^.#X&X^..Xn.n.4.v.9X7X7X6XrX9Xr.4.<.N Y u 4 d = : = & 2 &X1X).#X`.`.).).%X] > I S W K F P ^ T.,X",
"  dXnXfX<XeX1XT.` L I I ] Z ).(.).`.).XX XOX|.u u +.h.L.yXK.6X8XS.8.0.i.3.Y h = = + < 1 !.#X_.`.`.'.`.1X'.` ; ! A P K { %XaXgXvX",
"  dXnXvXvXhXcXcXbXxXnXhXU.0 ~.`.`._._. X XOXtX6.C j.K.L.K.7XG.Z.G.D.S.A.7.R b $ = 1 7 S ).%X%X).`.`.`.#X#X` O ! 6 D T.sXgXfXhX>X",
"  >X=X>XaXfXgXhXxXhXvXnXU.8 XX^.`.%X%X/..X0XlXtXx.7X7XH.7XK.Z.L.Z.G.O.1.2Xc h # # + D ~ #X#X).$X#X'.`.`.`.] : P Z L :XfXdX0X,X%X",
"X '.&X<X*X^.(.aXiX:X:X0X{ A %X(.XXXX%X%X0XzXtX9XS.K.7XyXP.H.F.F.M.C.G.+.9Xk f $ = $ { `.&X#X^.`.`.`.`.`.`.] O I 1 P iXcXhX&X%XXX",
"  ^.].R.T.R.*X).%XXX/.%XU.g ~.XX*XE./.XX*Xk.e.z.j.m.N.B.H.P.B.B.F.a.s.f.i.u f % - G +X&X'.1X1X$X`.`.`.'.#X{ ; I 1 ! eXnXuX].!.'.",
"X '.'.^.^.&X,X=X%X%X%XR.U.6 XX%X(.XX*X/.}.{.u p 6XL.L.L.P.P.Z.g.f.L.G.G.+.N M d = u..X^.'.'.#X'.'.#X#X'.'.{ O P 1 D pXcX$X^.'.~.",
"  ].&X&XR.XX`.>X/.%X:XE.E.7 *XXX.X^.XX*XOX|.s 0.K.K.N.P.N.B.N.m.9.s.*.i p m M b b W./.(.1X1X'.1X`.#X'.`.#X] ; P 1 z dXzX1X1X=X-X",
"o `.`.`.XX`.).T.E.U.~.;Xy.g %X%X(.(.&X.XoXOX6X2X7XL.P.P.H.N.,.,.>.9.C.8.t.k f f k.}.oX(.'.1X'.1X'.`.#X`.'.] ; Q 2 S vXcX`.'.!.].",
". T.R.].T._.^.#X%XR.`.-Xy.8 XX%XXX^.(.Q.OX[.4X5XC.yXL.P.B.N.,.o.*.q.8XV.4.4.c c k.n.+X(.k.1X1X1X).#X_.%X`.] , U & D bXgX^.=X-X'.",
"  P ^ I L { / _.T.^.).E.E.g %X/.(.(._.~. Xc.5XrX8Xh.Z.B.g.o.,.,.h.Z.8XJ.6Xj.V V R n.+X+X+X(.k.1X#X#X).#X`.] , D O L dX&X[ U L } ",
"  Q S D ! F ! F K ^ G K ] A %X/..XXX%XoX+X}.|.4XA.A.:.&.,.@.@.,.m.8XK.r.e.4.3.V u n.k.k.Q.+X+X(.#X_._.%X#X' < F O S iX~ ! P F L ",
". + O & 6 1 1 9 A 1 6 F E.7 _./.XXXX_.`.+X@X{.c.v.-.=.@.o.&.w.Z.Z.V.:.=.@.#.+.C f B n k.k.k..X+X/./.XX`.1X` o * , 2 @ 1 + & , @ ",
"  * 1 2 + < < O 2 # > # ~ g %XXX%X%XXX%XoXoXOX|.5Xn.x.h.:.:.N.Z.h.*.@.;.$.+.C O.x n n C B 7.c.k.OXoX/.~.`.{ * z 9 & & 2 1 o 2 1 ",
"X D L z 9 6 S O 6 @ 2 # U.6 XXXXoX/.%X%X~.W.W.}.z.n.x.h.,.Z.h.w.@.=.;.+.x a #.=.-.-.V V B V Y 5.u.[.@XoX(.` @ U D } L U H } 0 z ",
"  D L P ^ 9 K G K F D K ^ 6 XX%X-XXX%XXXXX X}.[.c.n.e.h.h.,.g.,.,.$.O.X.=.@.8.q.=.j.j.j.j.-.M Y Y R }.OX.X_ & T.'.gXcXgXsX'.S 9 ",
"  D D ` `.sX,XzXfXkXkXfXy.> XXXXXX/.%X%X/. X[.u.z.n.j.m.m.&.w.,.o.a +.@.0.h.q.q.=.j.=.j.0.j.e.6.Y Y u. X(.{ @ R.&XfXfXsX=X[ 1 & ",
"X U U *XkXvXcXbXcXgXvXxX/ O _._..X/.XX*XQ.k.5.B z.j.h.m.m.M.:.o.x @.;.q.8.q.8.;.@.=.8.;.8.e.4.j.3.V B _ @X) 4 { <X'.<Xl.^ I & 1 ",
"  D D =XvX&XiX=X*X_.*X).^ 1 ~.%XXX/._..X X7.Y n b.4.h.M.a.>.o.X.@.m.9.h.0.:.;.@.X.:.$.8.;.+.8.#.-.V M B }.^ & ^ (.].].R.! z & 2 ",
"X D P aXcX^.=XR.:X%XuXY.U.2 ).%XXXXX`.oXW.Y -.m V.X.:.M.,.o.o.:.N.,.h.q.w.>.$.o.X.@.%.@.@.$.;.$.C V Y R .X) O ] ].&XI.1Xz 9 + & ",
"  L D gXvXXX`.).Y.XX~.%X{ > $X!.XXXXXX@X5.N -.x :.X.:.o.| o.,.w.,.9.q.r.q.@.X.i a w.9.w.s.9.+.=.-.C B B k.) * { +X=X-X'.P 7 1 O ",
"X F D vXhX~.&X/.>X^.(.Y.' > -X#XXX%X[.[.R -.=.i #.x :.o.X.,.=.w.m.8.0.8.8.X.X.a 8.q.V.9.:.w.@.8.4.C n c Q.) 2 [ `.^.^.`.I 6 O O ",
"X D L cX:XT.R.&XE.`.Y.`.] + %X).E.oXOXu.6.-.+.x x =.=.h.h.h.h.w.8.s.t.$.e.#.i 0.8.V.q.9.m.@.=.t.#.C n 4 .X) + [ (.`.^.*X! 6 < < ",
"X F L =X] [ / ^.R.%XT.&X~ # (.*XE.@XOX5.7.-.+.x x :.=.0.h.0.V.w.8.t.t.4.1.u k j.t.r.s.s.a.@.*.r.3.V d - .X_ & { ).*X`.XXI 6 < + ",
"  } S D I K I ] =X^.&XE.] # XXXX XoX[.5.-.-.-.x =.=.j.0.V.r.m.r.D.a #.4.k n <.3.i.t.8.C.>.%.8.r.#.M f c .X) & [ `.-X%X/.F 7 O > ",
"  P L 2 K + + 0 } K H F ^ < XX.XoXOXi.5.6.C 4.s =.=.h.0.h.m.j.;.+.1.<.2.l  XlXjX<.v.3Xf.%.*.p.d.V n d H +X) * { `.XX`.XXL 7 2 O ",
"  P L z D D 1 7 7 S 3 S Y.; .X X2XU.5.6.<.#.=.+.@.=.=.+.x i =.A.O.<.N p 3X- - j lXN f...d.*.d.p.C n c R Q.) + _ T.`.^.`.P 9 1 # ",
"  L D } ! L 7 X 0 O 2 + ` < .XW.@XU.2.t.#.-.x O.=.j.j.0.u i =.s #.k 2Xq lX8 hXlXjXqX.. .*.p.p.r.C n c _ (.~ & ~ `.^.[ l.K 7 < < ",
"  I D I D S L 7 0 3 6 6 E > XX.X|.5.<.t.0.+.+.=.=.h.h.h.x =.@.X. .w |.N t - - j Y wXr .... .f.t.C f b k.(.) * L D L K P K S > O ",
"  K P I F W W I L L v L T.> XXQ.{.7.6.4.=.x x :.;.j.h.h.@.8.*.@.t e l lXlXjXj lXq wXt y y y 1.<.n f b k.+X/ O 1 9 0 0 6 7 9 O 2 ",
"  L `.<XpXpX,X:X`.y.P ^ L 2 Q.@X|.u.1.8.=.X.+.:.0.h.,.m.$.%.X.%.t i p wXq e u lXwXi.y y r t p l n c b Q..X) # + & # 2 ; # 6 # 6 ",
"X P sXxXvXgXkXvXxXvXvXdX] < XX X|.i.1.$.@.:.o.=.w.,.m.,.&.| f.s.M.O.l l U.lXqX3Xi.y y y t w q p u c b Q. X/ * & 2 < 2 1 > 3 6 g ",
"X D iXgXgXcXaXkX<XgXgXdX] > .XoX|.u.0.$.@.0.@.,.&.&.X.a.Z.w.>.B.C.V.a p  .l t l r r r r r t e u u B b +X X/ # 2 7 2 # 1 2 2 g F ",
"  D dXvXfX`.T.T.R.T.=X-XY.# /.oX|.n.i.q.9.m.@.@.@.:.&.M.F.F.&.&.f.p.f.i.l p l w r ..r r t w e u c B T |.oX~ > K F K S D K 9 K S ",
"X ! iXdX(.].!.&X=X=X+X^.] @ XXW.|.2Xx.V.V.C.8.*.*.s.s.F.a.M.C.a.H.6Xr.l t.s w y r ..y r w e p k M B Y {.[.y.# ~.U.%X=X`.=X>X>X/ ",
"  I pXnX'.'.&XR.'.l.*X]./ # ;X XOX{.c.D.D.A.s.r.q.9.C.K.s.a.a.L.f.d.G.t.%. .y t r r r y w p N l M <.5.[.}.y.+ &X).bXzXgXvXgXsXW ",
"  U aXgX=X].1X&X/.`.(.'./ # Q.oX X}.{.{.n.n.b.D.q.V.M.s.>.>.>.&.d.C.r.t.$. . . .r r w p l l k n <.2.u.[.OX( = [ *X=XT.~.-X).T.W ",
"  D aXhX#X=X=X'.^.Y.%XR.] # /.XX X/. XoX}.[.b.b.x.r.r.a.>.>.>.%.o.%.O.O.%.O.l  .q w p O.O.O.#.#.2.e.n.b.OX_ 4 ) *XT.*XY.E.&X/.I ",
"  L aXhX1X^.R.=X[ =XR.#X] < Q.XX/. XoXoX X[.|.2XA.j.x.s.M.M.a.s.s.8.*.$.1.%.1.$.w i  .%.O.%.2.r.x.b.b.|.{.( = { ^.`.&X*XR.).T.P ",
"X L aXhX1X`.^.).^.`.).).` > `.&X%X_._.%X X XoXOX|.4Xv.D.S.m.V.V.V.D.i.i.8.1.1.8.O. .#.8.$.e.x.D.4X4XOX{.k._ . ~ T.%XT.&X'.*X^.P ",
"  I uXaX^.$X#X~.).[ ~.I.I.; ).#X).).).).).#X^.].}.{.2Xx.D.S.6XA.S.S.6X3XD.S.D.A.D.A.f.x.v.4XA.|.|.{.{.OX+XR.2 ~ >XT.`.^.^.R.{ D ",
"  L sXaX`.T.^._.U.$XT.T.` & ^.1X*X+X*X(.`.&X$X$X+X}.}.n.b.|.4X5X4XA.b.|.2X|.b.b.|.2XA.b.|.4X4XOX}.Q.(.1X(.` + P { W ! W ! ^ P g ",
"  L dXhX`.Y.T./.#XY.>X^.~ 4 ].].Q.^.'.'.'.$X$X$XXX/.Q.Q.{.n.2X4X|.|.n.{.{.{.{.OX|.|.|.{.{.oX.XQ..X(.'.'.].[ , E D K L P G I F S ",
"  D aXdX).E.XX*X[ (.].+X) o ^ I D L E ^ Q Q Q Q Q ~ ) _ _ ( R ( _ ( _ y.y._ _ _ _ { _ ) _ ) ] ` { ) { { { ` + 2 2 # 1 O < > 1 2 ",
"  L XX;X] ^ W ^ W ! ^ ! ^ O * = < , 2 > , , , 5 , , 2 < * = < # * * * < < < * 2 & & O & < 2 , , , , , : , , O , > > O # > 1 ; O ",
"X I W ~ J J F A A 8 g 9 z z z 0 > > 5 6 5 ; ; , , > ; ; ; > > : O + + O O O O + & : * 1 4 z 1 z 4 z z z 9 7 9 0 0 9 Z Z Z Z Z Z ",
"  K > > 5 > 1 > > > ; < . < < 2 5 5 F J J 5 Z 5 6 7 6 Z 0 8 7 6 6 6 7 7 7 7 3 1 1 1 4 v v v F F U F F F H I G G I K I A L J I E "
};
