/* XPM */
static char *b39c1f6b099944c7c4b8e71e3959304auDE0vui8hBaWblUc[] = {
/* columns rows colors chars-per-pixel */
"63 64 182 2 ",
"   c #04050B",
".  c #100E0F",
"X  c #010114",
"o  c #03031A",
"O  c #08091B",
"+  c #0F1110",
"@  c #141514",
"#  c #161817",
"$  c #1A1B16",
"%  c #16181C",
"&  c #1C1C1C",
"*  c #181617",
"=  c #110F12",
"-  c #201F1D",
";  c #1E201F",
":  c #22221E",
">  c #080721",
",  c #1B1C22",
"<  c #1E1D2D",
"1  c #211F21",
"2  c #1F2120",
"3  c #1F2229",
"4  c #232423",
"5  c #262826",
"6  c #292926",
"7  c #24242A",
"8  c #292729",
"9  c #2B2C2C",
"0  c #282826",
"q  c #302E2F",
"w  c #2E302F",
"e  c #33332E",
"r  c #2B2A36",
"t  c #312F33",
"y  c #2F3131",
"u  c #2E313C",
"i  c #333333",
"p  c #363835",
"a  c #3A3A35",
"s  c #34353C",
"d  c #393739",
"f  c #363939",
"g  c #3B3C3B",
"h  c #383637",
"j  c #403F3D",
"k  c #3E403F",
"l  c #42413E",
"z  c #2D2C41",
"x  c #343544",
"c  c #373945",
"v  c #3A3C43",
"b  c #3B3C4B",
"n  c #393747",
"m  c #3D3B53",
"M  c #2F3045",
"N  c #403F49",
"B  c #3E4142",
"V  c #3E404F",
"C  c #434444",
"Z  c #464846",
"A  c #4A4A46",
"S  c #45454B",
"D  c #494748",
"F  c #464949",
"G  c #4B4C4C",
"H  c #4E504F",
"J  c #52524E",
"K  c #454452",
"L  c #4D4C52",
"P  c #4D4C5C",
"I  c #514F54",
"U  c #4F5150",
"Y  c #535453",
"T  c #565857",
"R  c #595955",
"E  c #595759",
"W  c #575958",
"Q  c #5B5B5B",
"!  c #57555A",
"~  c #605F5B",
"^  c #5E605F",
"/  c #61605E",
"(  c #5A5864",
")  c #615F60",
"_  c #5F6160",
"`  c #646464",
"'  c #666866",
"]  c #676968",
"[  c #6B6C6C",
"{  c #666667",
"}  c #6E706E",
"|  c #72726E",
" . c #6F7170",
".. c #737473",
"X. c #767877",
"o. c #777779",
"O. c #777978",
"+. c #7C7C7C",
"@. c #787876",
"#. c #6F6F6E",
"$. c #7E807F",
"%. c #83837E",
"&. c #7E7E81",
"*. c #837F80",
"=. c #7F8180",
"-. c #838484",
";. c #868887",
":. c #878988",
">. c #8B8C8C",
",. c #898786",
"<. c #8E908F",
"1. c #92928E",
"2. c #8D8C91",
"3. c #918F90",
"4. c #8F9190",
"5. c #939493",
"6. c #989696",
"7. c #969897",
"8. c #999995",
"9. c #979998",
"0. c #9B9C9B",
"q. c #989799",
"w. c #908F8B",
"e. c #A19E9C",
"r. c #9EA09F",
"t. c #A3A29E",
"y. c #9E9EA1",
"u. c #A19FA0",
"i. c #9FA1A0",
"p. c #A3A4A3",
"a. c #A8A5A4",
"s. c #A6A8A6",
"d. c #AAA9A6",
"f. c #AAA7AB",
"g. c #A7A9A8",
"h. c #ABACAB",
"j. c #A7A7A9",
"k. c #B0AEAF",
"l. c #AEB0AF",
"z. c #B2B1AD",
"x. c #B1AFB0",
"c. c #AFB1B0",
"v. c #B3B4B3",
"b. c #B6B8B7",
"n. c #B7B9B8",
"m. c #BBBBBB",
"M. c #B9B8B6",
"N. c #C0BFBD",
"B. c #BEC0BF",
"V. c #C1C1BD",
"C. c #BFBFC1",
"Z. c #BFC1C0",
"A. c #C3C3C3",
"S. c #C6C8C5",
"D. c #CCCCCC",
"F. c #C8CAC8",
"G. c #CED0CE",
"H. c #D2D2CE",
"J. c #CFD1D0",
"K. c #D4D4D3",
"L. c #D8D7D6",
"P. c #D6D8D7",
"I. c #D9D8D6",
"U. c #DADBDA",
"Y. c #DEDEDE",
"T. c #DCDCDB",
"R. c #D7D6D9",
"E. c #CECDCF",
"W. c #E0DFDD",
"Q. c #DEE0DE",
"!. c #E2E3DE",
"~. c #DFE1E0",
"^. c #E2E2E2",
"/. c #E3E3E3",
"(. c #E6E8E7",
"). c #ECECEB",
"_. c #E7E8E7",
"`. c #EEF0EF",
"'. c #F3F3F3",
"]. c #FBFBFB",
"[. c #F7F9F8",
"{. c #EFF0F0",
/* pixels */
"C ' l H ` ^ l H.Q.Q.Q.~.Q.Q.Q.!.Q.`.J.`.K./.S.)._.H.Y.^.R.)./.W._.R.D.` I I L v C F B B G S k S F B H U G U T G _ T W Q Q ^ Y ",
"Z ` J R H U J `.H.H.J.J.J.P.H.G.J.G.n.P.F.A.h.D.K.Y.u.A.f.;.E.*.u.q.5.i d { 5.q.>.>.4.5.-.4.5.>.4.4.>.:.} { W U Z B S D B Z G ",
"<.;.<.<.5 F W K.H.V.V.Z.B.B.B.B.G.F.F.l.T.i.p.m.E.2.C.f.5.f.e.5.x.6.t.e a 8./.K.^._.Y.~.(.^.U./.T.~.~.Q.K.A.h.q.4.4.4.4.5.4.4.",
"l.F.s.O.2 Q Z U.G.z.l.v.l.r.r.B.l.l.r.g.y.p.i.g.f.u.q.u.v.6.>.3.:.v.v.e a %.V._.D.M.A.v.S.m.D.v.n.J.J.K.W._.Y.R./.T.J.T.A.J.J.",
"b.r.O.=.9 G v `.Z.h.i.l.l.r.r.l.r.5.;.7.4.h.g.5.j.3.F.x.y.j.+.m.k.>.>.C l p./.m.6.p.x.6.j.h.x.5.l.p.p.2.k.6.u.6.-.h.*.v.5.j.q.",
"r.5.X. .3 U G F.l.r.r.r.r.s.r.r.r.b.4.r.i.i.>.r.u.x.+.5.j.q.5.&.x.5.h.D p @.^.v.6.a.-.>.-.>.+.a.+.:.-.p.6.5.>.h.q.5.p.g.i.k.:.",
"9.<.] W ; U T s.r.4.1.r.r.s.s.r.;.$.5.v.4.i.B.l.0.,.D.u.>.v.:.v.f.y.5.v C -.^.C.h.:.e.-.C.+.3.5.v.p.0.0.h.>.+...5.>.k.a.q. .n.",
"4...H H 5 H G O.U U U U Y R ^ F B [ ^ H ^ B B ^ S L Y D E Q ! E T ! i C 8 5.U._.5.h.o...5.v.;.-.4.-.h.[ p...p.6.v.0.5.[ A.j.;.",
"..U k k 5 U B w k k k k k k k 5 B 5 B k i f H y C g D t v C 9 g g i C g Y G m.U.-.6.>.p.t.g.<.3.z.q.8.<.0.0.0.+.6.5.5.u.6.q.5.",
"H k k k ; ^ U # 2 ; 5 2 ; ; 2 ; 2 y # + w ; # ; @ * 4 @ : @ 5 8 & % i & { C v.m.3.0.:.A.-.q.;.m.>.6.$.m.+.0.@.-.` { ] +.....` ",
"U ; ; 9 9 B ^ G F U U U U ^ W B G Y '  .=.<.v.v.U.).L.~._./.U.T.T.U._.U.G C h.6...] o.E Q ! [ T ' G { ! [ G { E E G Y g G C D ",
"9 y ; y 5 ^ U U } ^ ] (.G.`.Q.Q.T.K.~.Q.P.K.~.~.m.h.M.v.g.v.v.m.v.C.U.^.D J 5.{ E T J Y Y D E G Y D ! D D g C g j i i 0 9 8 9 ",
"; ; k 9 ^ B _ H k ..G.B.Z.g.B.c.b.Z.b.m.A.n.Z.B.h.a.h.q.6.q.+.6.N.R.h.m.9 Y g i D g q q d % l D p g g C i g g t 4 5 4 4 4 5 4 ",
"k k k y p F ^ ^ ^ $.B.r.<.B.>.<.$.<.$.4.9.>.g.9.0.5.0.v.g.Z.s.0.q.h.h.5.g t 9 0 % t 4 q e p q % i y 9 9 9 i i i g d g i g i g ",
"F k y Z w ^ k ^ U ] Q.<.i.7.<.l.s.s.4.i.g.p.h.p.m.h.0.;.>.6.p.h.a.g.+.-.8 H G ' R Q H Y i E J _ N C G G D C G E C D C Y D J C ",
"r.r.r.4.r.7.W W B U B.B.i.<.:.>.4.=.9.4.=.4.0.j.>.1.j.x.p.a.q.q.g.t.q.v.g C ! D / i { H E { t.L.Y.H.S.x.g.q.6.5.0.6.q.0.0.q.0.",
"P.F.F.Q.F.B.^ W ^ Y $.Z.=.B.<.$.$.r.:.r.=.$.c.c.m.h.h.>.;.-.3.p.K.0.h.-.Z D '.].).).H ` 9 q.{././.E.T.L.~.~._.~.^./.~././.^.~.",
"r.i.=.B.=.B.k G B H $.r.s.$.l.g.<.s.} r.$.U l.=.u.0.j.0.p.j.h.M.L.v.-.X.5 ! L.u.6.*.].j N x.H._.h.k.p.p.5.6.>.:.M.v.M.h.v.M.C.",
"g.<.r.4.s.r.p U U ' k 7.r.} $.} } U ^ ' _ ] $. .O.X.O.} ....[ #.{ [ +.D G J /.5.-.6.[ Q Q 0.].K.>.5.6.6.:.*.O.o.k.u.u.u.q.6.0.",
"l.r.r.r.9.h.; ^ U ^ ^ k ^ F ^ T k F k k y # F H G G D D G Y D D G i J d N D M.5.p.+.[ q Q h.~.p.g.p.g.-.M.O.5.6.5.2.;.j.o.*.o.",
"7.7.s.>.s.=.k B H k B B B 5 9 $ 5 9 ; ; ; + w ; 8 9 9 i 9 h 9 8 i 9 g g Q H { +.o.Q Q i Y *.D.A.>.h.5.0.-.v.h.6.g.*.6.,.y.;.h.",
"7.i.$.=.=._ k ^ ] R ' F k k k k 5 k y H k k k k g g g C g G D G C ` i D Y ` C Y i D g C S D >.+.k.4.*.v.u.*.:.>.6.5.5.0.-.-.-.",
"$.=.=.=.r.w k B B B B ^ _ U ^ ^ ^ U H H B ^ U U ! R D Y C ! I ! C Y Y E t D E C Y ) C Q J C E J [ >.:.[ k.4.p.5.-.-.j.+.,.` 5.",
">.h.<.l.^ k + ^ U ^ ^ B U W U V ' U ^ ] Z.(.(.`.Y._.U.^.H.T.K.K._.D.^.^.^.L.{.{.3.;.Y [ G Q C H [  .] j.v.>.:.5.+.X.5.:.v.5.p.",
"i.7.c.^ k 5 k W H i.Q.`.(.~.Z.l.^ U G U G.Z.Z.B.B.B.S.Z.K.S.S.F.m.D.m.h.K.v.m.C.D.m.v.m.>.o.E Y Y l C +.+.p.6.-.j.>.( ` / >.-.",
"' W W k # F B T i.J.~.Z.i.i.i.s.} $.F G Q.B.b.s.>.:.5.<.h.4.0.q.+.v.k.q.-.5.0.>.6.q.m./.Y.U.).~.Y.Q E ! Y d g E D C Y g ` D ' ",
"U k B ; k B g.g.P.Z.h.B.i.l.7.=.=.r.k H Q.B.4.<.r.<.i.<.k.>.5.5.e.O.-.v.*.v.m.>.v.>.] c.h.p.H._.^.L./.D 1 5 - - 8 4 * 4 4 i i ",
"# ; k F  .9.(.~.G.l.<.$.=.s.9.<.B.<.9 k } B.=.$.>.:.4.g.6.v.X.>.p.+.3.0.p.:.3.g.>.6.v.6.-.&.:.g.0.-.O.v.C 8 i h g 5 9 5 i & - ",
"F ^  .$.4.Q.`.Z.B.l.7.r.i.c.=.i. .:.w 2 ^ Z. .4.>.4.h.0.5.>...3.:.:.:.0.O.0.>.p.e.>.>...3.X.3.;.>.v.6.! @.- Q {.[.{.D.C.>.C i ",
"W r.l.'.~.~.J.4.i.9.i.7.=.i.<.9.r.s.W ; k c.i.r.:.>.u.:.p.:.p.j.k.e.g.3.5.p.0.:.6.>.&.6.-.0.q.:.+.5.h.D Y   Q '.m.m.].].'.u.g ",
" .h.G.P.G.b.<.i.9.$.B.<.4. .<.g.=.] H 5 k =.Z.7.g.h.O.p.6.j.;.*.o.o.-.p...>.,.v.-.k.+.A.[ ;.>...6.g.;.G D $ D _.h.N.0.m.u.6.g ",
"' Q.B.9.c.=.4.g.s.=.7.$.l.=.=.c.i.<.T # U F >.=.>.-.+.-.u.5.p.h.m.o.3.5.j.-.>.6.j.h.@.-...-.p.8.b.-.:.! 4 N Q {.>.>.p.;.0.;.i ",
"^ ' r.r.7.>.4.=.4.l.i.r.5.r.4.r.=.X.p ; Z T F A.j.p.p.0.0.;.6.p.3.-.:.p.-.>.;.h.-.0.>.v.j.j.5. .>.h. .C C 4 J _.u.m.q.0.+.) 9 ",
"] W ' g.7.4.Z.r.r.$.$.l.$.$.$.] T Z p i Z B # `  ...5.-.v...5.6.k.>.u.u.h.6.6.0.+.b.-.u.] 3.{ *.p.6.+.E 8 4 ` [.q.:.u.p.m.` D ",
"W _ B ^ } ' ^ } ^ ..^ ^ ^ ] ^ F ^ # w H Z W C 5 g g 9 i L Y -.p.+.-.>.h.*.4.-.p...0.e.-.5.6.>.g.3.h.J G h t J _.h.5.3.0.d.! i ",
"_ B B k 5 k 5 9 5 p w ; k 5 ; 5 2 p B Y T Y H B 1 & * 9 1 $ i i j i g g g g i g 9 i D G ` *.-.5.4.;.{ g @ $ { /.5.5.5.q.d.Q t ",
" .^ U ^ U B B F U B F U H V B F F U Y W D H Y Z H D d i 9 - d 0 4 4 & $ * 1 4 8 9 - 0 - 4 9 l N d g C g g 9 v { E Y E C { C N ",
"} G.Q.~.G.~.`.Q.P.F.J.`.[.P.(.(.).S.B.5.T H C T D Q H D D g 9 4 g d 8 % % 1 2 : = 1 1 & % - - % & 8 @ 7 5 1 $ % : % 6 4 ; 5 e ",
"_ ~.Q.Q.B.B.r.h.B.Z.Z.>.$.=.l.$.r.:.i.i.[ W & 8 9 C Y G ` Q E ) C G C g t i i i q C H H E Q J D Y C J g J C h g g 9 g g g 9 q ",
"] ~.i.i.i.g.s.r.r. .=.l.i.=.=.b.i.>.5.4.^ Y ; 1 g C G C i 9 8 t C G G D G G J G C C H J Q [  .O.X.+.-.*.-. .+.+.*.@...+.5...g ",
"_ (.B.>.=.i.r.=.9.9.i.7.=.i.<.=.=.=.<.i.X._ 2 ; 4 i  .-.-.,.;.>.X.o.o.@.+.-.+.*.:.:.6.0.h.M.A.D.C.C.A.C.A.m.A.F.D.D.m.C.C.+.9 ",
"T J.B.c.b.7.r.B.i.l.7.<.=.r.r.B.i.g.5.9.^ F 3 2 4 9 +.C.A.H.A.m.A.S.C.F.A.m.A.m.C.D.H.~.^._._._.'.'.'.{.).{.'./._.L.~.K.u...4 ",
"] P.B.4.s.r.r.h.<.i.<.9.<.=.=.<.$.5.<.r.] Y k ; 5 * ..A.U._.[.'.{.).^.)./.{./.{.).).'.).)._./.R.M.m.v.H.M.C.A.D.m.m.F.M...Q i ",
"^ J.c.9.r.i.<.9.g.7.i.$.7.=.Z.=.9.i.7.:.[ Z k ; i 4 o.A.Y.v.C.M.F.A.v.a.A.N.h.C.C.N.C.k.x.j.0.:.>.j.5.j.3.5.;.a.:.g.0.h.o.J q ",
"F B.=.7.s.g.r.r.i.b.g.<.i.7.7.=.r.r.r.<.$.Y k ; @ & { D.W.h.3.3.*.6.p.;.v.*.j.g.6.u.0.v.p.p.>.>.6.5.e.M.>.u.h.>.u.N.>.0. .G t ",
"B Z.g.c.r. .r.9.4.>.7.l.4.r.<.<.r.r.4.<.} ^ p 2 * 9 l D.R.F.:.0.5.u.>.p.>.p.6.0.:.>.5.x.u.5.;.6.:.0.&.>.v.>.;.h.3.f.3.j.o.G 9 ",
"U >.$.$.} T 9.l.=.c.=.i.r.l.$.v.=.>.=.=.] W 9 ; & t t M.~.Y.0.f.3.&.0.5.o.4.>.y.5.5.p.0.y.;.:.3.g.6.>.u.3.X.:.6.-.5.>.u.| H 4 ",
"F k 2 + 5 T _ F T _ ] ^ T _ ' _ ' ] ' ^ ^ Z k 2 & 1 9 u._.E.q.3.k.>.5.>.6.p.4.>.*.>.q.5.6.0.u.0.>.j.5.6.{ :.6.o.0.p.| &.[ Y 9 ",
"H B  .B 5 9 5 9 ; C d 4 C g 9 l i 9 g i g 9 9 5 , 4 9 q.K.M.f.2.;.f.3.M.*.;.>.e.*.3.5.0.2.p.5.:...h.+.:.y.v.-.2.u.3.+.:.[ Q 4 ",
"T F T k H L F 5 9 @ 4 i @ % 8 * : & & & 4 8 - & 8 5 9 &.3.+.*.&...+.&...f.2.x.u.>.3.*.3.,.3.>.,.p.3.>.v.3.q.y.>.*.+.>.5. .E * ",
"k $.h.l.v.y.h.5._ U Y Y g g i i 6 8 8 4 8 i w i 7 1 s { I h j - x 7 r 4 L *.{ w.>.O.*.+.*...*.*.#.>.,.o.o.o.*.,.&.-.+.5.[ E & ",
"k r.G.P._.J./.D.m.h.j.<.[ ' Y C i d i h i C i g g d C I j j j j h D 8 d j N J ~ ` E J [ N ` j ) G Y Q Y Q I ( D ! ! ! I J - 9 ",
"A d.H.t.t.r.F.Q./.R.Y.S.h.k.v.d.h.h.m.e.6.*.,.*.*.+.#.| J R l l J a ~ h j - 6 - 9 & 8 4 q t 6 8 8 1 - 1 q 1 1 1 - - . - 0 4 6 ",
"l s.).d.B.s.b.M.5.z.H.L.T.E.L.)./.H.!.K.).W.W.S.D.V.z.z.8.a.e.N.,.A J l - A j e a g j e e q e - 9 9 6 6 8 1 q h 1 t 8 - R 6 J ",
"^ d.Q.r.r.8.| } z.q.%.1.d.e.5.>.8.0.a.N.1.h.h.v.d.M.H.!.'._.H.N.*.e l / A H.L.).L.!.W./.H.W.W.!.!.I.W.{.).W.I.W./.I./.!.I.).A ",
"k d.Q.z.1.B.r.M.>.p.>.5.r.w.5.z.-.+.>.8.#.*.,.3.z.3.e...d.e.N.,.` = A A J N.N.E.k.e.k.a.1.v.1.z.e.e.t.t.e.e.e.e.x.,.z.w.E.W.~ ",
"S C.D.v.%.t.| %.h.e.8.a.M.a.w.*.a.*.%.,.e.a.u.,.u.;.v.,.A.e.h./ R - j D I L.v.N.I.e.z.,.v.t.e.1.t.t.t.e.e.t.a.a.*.N.w.z.w.@.i ",
"S p.&.[ / | R ' ' Q R ~ / { { ~ ` ` #.) [ ~ [ ) #.E { Q [ ) ] G J N - G j /.u.f.m.w.e.1.z.e.e.t.e.a.a.t.t.z.h.t.z.%.z.a.H.e.i ",
"S y.` 9 k l p e j a j j e j j j d C i k d C e j j i e a i p p a j h - 6 j N.f.N.M.t.8.t.d.8.e.d.w.1.t.t.t.d.0.1.z.8.z.w.f.! 8 ",
"K u 7 4 4 ; $ $ $ $ - : $ - : $ ; 5 2 2 4 1 - - : 6 : 6 : 0 : 4 - 6 6 - j J j q ^ Q R } @.%.e.h.t.t.t.t.a.t.r.s.8.t.z.8.2.( 1 ",
") N N n n h 8 w 9 y w 9 6 e 9 9 5 9 9 5 5 3 5 9 6 9 8 4 8 9 8 5 7 8 7 9 N D C N y 9 3 ; 4 9 f B ^ Y H T W H U Q R H ( P P N < ",
"( P P ( K b K G V F V B N d c B B s y B i B g s v v s v v s v v N N v d D L ! D S c c u s u u s % % , 3 3 , % , & , 7 < r < < ",
"x b z m m m s s x x b c x x x x M u c x x u b x c b n b b c n b x x x x z N N m K b V V V x x x c c c x c c c c v x m r M N z ",
"  X > > o X o X o X o X X X o X o > X > X O X X X X X X X X X X O X X X o X X X X X X X X X X X X X X X X X X   O X > o > o o "
};
