/* XPM */
static char *d0831d8bddda4b1ee3aff160500a3260OWLRs593Z2Y4PybN[] = {
/* columns rows colors chars-per-pixel */
"63 64 173 2 ",
"   c #00010E",
".  c #0C0C0C",
"X  c #11110F",
"o  c #010215",
"O  c #03031B",
"+  c #090A1D",
"@  c #0B1014",
"#  c #141414",
"$  c #1A1917",
"%  c #1C1C1C",
"&  c #161618",
"*  c #201E1E",
"=  c #22211E",
"-  c #060621",
";  c #0C0C26",
":  c #1D1D21",
">  c #1F1D28",
",  c #211F29",
"<  c #232323",
"1  c #282725",
"2  c #292926",
"3  c #262529",
"4  c #29272B",
"5  c #2C2B2C",
"6  c #272928",
"7  c #302F2D",
"8  c #32312E",
"9  c #2D2D31",
"0  c #2C2C3B",
"q  c #312E34",
"w  c #333333",
"e  c #383734",
"r  c #363935",
"t  c #3A3A35",
"y  c #353539",
"u  c #393739",
"i  c #37393D",
"p  c #3B3B3B",
"a  c #413E3E",
"s  c #3E423F",
"d  c #42423D",
"f  c #343344",
"g  c #383744",
"h  c #3C3A45",
"j  c #363549",
"k  c #3B3A4B",
"l  c #383749",
"z  c #413F42",
"x  c #403E4B",
"c  c #413F55",
"v  c #434343",
"b  c #444945",
"n  c #4A4A45",
"m  c #45454A",
"M  c #494749",
"N  c #464949",
"B  c #4B4C4B",
"V  c #504E4F",
"C  c #4E514C",
"Z  c #52524E",
"A  c #59594F",
"S  c #454453",
"D  c #4D4D53",
"F  c #4F5153",
"G  c #545353",
"H  c #585654",
"J  c #5A5A55",
"K  c #55555A",
"L  c #59575B",
"P  c #5C5C5B",
"I  c #575A56",
"U  c #605E5E",
"Y  c #5D605F",
"T  c #63625E",
"R  c #5D5D62",
"E  c #515062",
"W  c #615F60",
"Q  c #5F6062",
"!  c #636363",
"~  c #686764",
"^  c #6B6A66",
"/  c #676668",
"(  c #6C6C6B",
")  c #706F6D",
"_  c #6E706F",
"`  c #72736E",
"'  c #747474",
"]  c #797974",
"[  c #767678",
"{  c #797778",
"}  c #7C7C7C",
"|  c #787775",
" . c #807E7F",
".. c #7E807F",
"X. c #82827F",
"o. c #7F7E81",
"O. c #817F81",
"+. c #7F8180",
"@. c #848484",
"#. c #888686",
"$. c #878884",
"%. c #8C8B85",
"&. c #8C8C8C",
"*. c #888789",
"=. c #8E908F",
"-. c #93938D",
";. c #98988D",
":. c #8E8E91",
">. c #918F91",
",. c #8F9191",
"<. c #949494",
"1. c #979894",
"2. c #9B9B95",
"3. c #969699",
"4. c #989699",
"5. c #9C9C9B",
"6. c #989896",
"7. c #A09E9E",
"8. c #A2A39E",
"9. c #A9A99E",
"0. c #A2A296",
"q. c #9D9DA1",
"w. c #A19FA2",
"e. c #A3A3A3",
"r. c #A8A6A6",
"t. c #AAAAA4",
"y. c #A6A6A9",
"u. c #A9A7A9",
"i. c #ACABAB",
"p. c #A7A8A3",
"a. c #B0AFAD",
"s. c #AFB0AD",
"d. c #B3B3AD",
"f. c #B5B5AB",
"g. c #AFADB0",
"h. c #B1AFB0",
"j. c #AFB1B0",
"k. c #B3B3B3",
"l. c #BABAB5",
"z. c #B6B6B9",
"x. c #B9B7B9",
"c. c #BBBBBB",
"v. c #C0BFBE",
"b. c #BFC0BB",
"n. c #C2C1BF",
"m. c #BABBC0",
"M. c #C3C3C3",
"N. c #C9CAC5",
"B. c #C7C5C9",
"V. c #CBCBCB",
"C. c #C7C9C8",
"Z. c #CED1CD",
"A. c #CECFD1",
"S. c #D3D3D3",
"D. c #D6DBD3",
"F. c #D6D6D9",
"G. c #D8D6D9",
"H. c #DDDEDD",
"J. c #DCDCDB",
"K. c #D8DDD7",
"L. c #E0DFDE",
"P. c #DDE1DB",
"I. c #E0E6DC",
"U. c #E1DFE0",
"Y. c #E3E3E3",
"T. c #E8E6E7",
"R. c #E6E5E9",
"E. c #EBEBEB",
"W. c #E7EAE7",
"Q. c #EFEDF0",
"!. c #EFF1F0",
"~. c #F2F2F2",
"^. c #FAFAFB",
/* pixels */
"D F B F Q v C ~ C b V.W.P.P.P.D.P.J.P.E.R.K.I.D.H.M.g v &.j.j.C.P.S.A.I.J.z.m.j.' I < r b G N s b N N b N N B C F Q A b C C d ",
"L Q B s ! C I Z I G !.V.D.C.Z.N.A.A.V.A.A.V.C.W.F.q.@ 6 3.m.m.1.y.,.,.:.:.:.y.,.P G : s _ =.q.:.,.3.=.+.} ! I F F v n s d Y T ",
"$.,.&.e.[ <.$.< s R A.A.C.C.b.C.N.C.B.F.F.z.m.C.:.Q , i m.F.z.&.q.q.y.q.q.q.i.3.L i < v &.B.F.R.H.Y.S.C.j.i.<.<.&.,.&.-.;.X...",
"J.P.J.k.z.<.:.: Q m R.F.5.p.s.e.1.i.5.5.z.&.e.e.+.Q 3 v :.z.*.&.,.y.i.y.y.,.+.( R i & d +.Y.^.c.c.H.Z.Z.Y.Y.V.H.F.Y.M.C.Z.Z.D.",
"k.e.i.k.e.+.} : V v Y.S.5.s.t.7.5.w.c.w.r.y.c.e.} R % 8 n l.&.e.1.1.5.p.q.y...Y Z p $ 8 X.S.r.i.+.y.&.i.i.e.e.#.<.0.t.s.;.=.5.",
"r.2.7.5.6.[ ' 3 n v E.S.i.&.s.1.x.4.&.%.5.:.5.i.$.F % n Z ` &.q.s.-.7.8.+.s.~ 5 e n % d 8.W.r.1.j.,.e.&.&.&.r.5.5.=.s.1.0.0.8.",
"y.i.i.<.&.( Q % w n H.A.,.&.&.z.y.q.1.&.6.2.i.5.! Y X 2 d b e.4.t.1.5.e.&.t._ d p y % q @.I.j.k.+.5.[ y.&.&.&.e.,.7.s.&.=.5.3.",
"y.1.5.&.[ B C : 5 M A.S.y.e.y.6.e.<.e.#.<.*.#.y.} F : 6 s L z o.i N 5 i 8 s i r N % 9 M ( R.J.&.k.' *.5.@.&.5.k.5.=.+.j.8.$.&.",
"<.<.&.} ! v p % 3 G e.H.c.2.c.*.5.} 1.&.@.q.i.&.! ( y 6 4 T w B y v y u M w w < 6 X M v M B.n.1.&.e.5.5.r.<.<.} 2.5.r.y.e.1.&.",
"' _ | P s 8 v < 5 M &.J.#.i.+.y.' 5.<.e.i.5.+.i.( G 5 # n v p 3 6 < # X 5 w 6 6 9 6 G G v B.c.&.c.o.j.@.<.*.$.( ` ! P Y ! ~ ( ",
"G B N p 8 : < % w B ' F.i.<.i.( [ } y.i.@.&.@.<.G ` 8 % v v p I M ' @.<.5.i.r.z.1.' v P v b.@.{ } G ( _ G B s ! C B B M n M V ",
"$ < % # 3 5 u p w ( u P.F.<.@.+.<.e.&.} z.<.@.r.*.G y y w p [ e.c.I.J.E.~.H.Z.i.} v w M K <.H _ ! / p v n N u u e 8 6 6 7 w w ",
"5 < 5 s p 6 6 5 6 B G i.S.*.k.&.&.@.e.<.&.#.<.4.( G u # 5 v e.A.Y.A.j.<.1.@.r.@./ u < B < D q d 5 w v p y 8 8 3 5 6 < , * * * ",
"p y y w u p p s p T h @.V.j.#.r.@.e.@.1.' @.i.&.I L 6 # u B y.P.F.e.<.<.&.&.<.&.P v % y 6 6 w w u $ 5 u 6 6 y s 8 u p a e 7 7 ",
"B v u 8 p y 6 8 w v n } b.=.r.z.-.&.i.r.<.z.@.z.W _ I 6 6 v j.R.e.&.&.i.>.q.:.5.s v % s G G B I v w p v M v G M n v v M V A Z ",
"6.4.e.2.<.e.r.7.u < K M V.M.=.&.e.5.&...} &.#.<._ P M < % B e.!.5.1.4.r.5.2.<.3.M 8 < 8 } z.G.W.Q p I *.<.q.5.5.5.5.5.5.2.7.7.",
"B.J.F.S.V.c.1.*.6 % ! G #.c.,.i.| =.&.5.&.e.e.' @.} v : # Z t.Y.t.7.,.,.y.&.t.} ^ 5 1 y i.F.c.j.< G &.B.J.U.H.J.Y.U.Y.Y.Y.J.F.",
"e.q.6.6.y.y.} [ b 6 G p [ i.5.*.c.1.&.5.&.} } v _ ^ M < 6 M i.n.q.<.@./ [ ( } v C y . v B.J.e.&.% G &.P.V.A.z.M.z.c.i.c.c.i.k.",
"1.<.5.5.e.,.! | u $ L I M r.#.@.( [ | G C } B @.G y 5 % # 8 k.=.+.} } p w u u p w v 6 ( S.k.1.@.3 s i.Y.c.5.5.r.r.5.6.<.>.5.e.",
"6.5.4.&.q.s.[ G y w v I B I G L F G N B v w u : 6 3 % # : w &.} 8 p s < $ % $ 3 = 3 # ( J.k.j.@.5 M 4.H.d.&.q.<.7.,.5.@.{ *.%.",
"5.<.1.5.7.=.( G 8 3 v G v w p 3 5 < : % % < < % . % < w % : v M v 6 . : 3 3 p 8 3 6 u <.G.i.i.#.= B 2.n.<.y.&.c.6.u.%.5.>.4.<.",
"2.@.O.&.<.&.} Q v $ : L ! v u % < % % 5 $ % . G I B p 8 B P @.1.&.c.c.&.<.&.' G : e G z.F.z.2.@.$ B <.V.z.@.j.@.k.*.u.@.{ >.<.",
"&.o.&.<.e.*.P v < < G &.S.Y.V.Y.C.B.j.:.! P p / ' e.z.J.k.J.Y.Y.F.M.Y.E.P.U.7./ < p X.I.V.i.1.o.X D } b.6.j.#.k.&.i. . .{ <.%.",
"2.q.e.+.,.1.( G w : < Y.S.i.*.2.5.1.1.5.u P B } M.^.~.M.V.z.c.c.V.J.b.S.z.i.} G 3 5 &.Y.i.>.3._ 6 G ' B.i.<.q.:.5.&.7.4.>.w.4.",
"5.2.:.y.*./ B u 8 6 v Z.t.,.r.s.i.<.r.r.y Z G 5.E.n.&.r.#.r.e.<.q.1.5.q.&.1.P B < y =.E.i.2.1.( % v p &.( I P C I P ^ } @.#.*.",
"[ / P ( P B u v p : 3 !.q.r.i.3.z.#.t.' . M p 5.E.i.j.i.:.*.q.s.5.&.:.e.&.t.K G % w $.^.e.i.6.P # G p w 8 D v B v V B p G G ! ",
"v v i y y 6 $ # < 6 p J.<.i.&.i.z.&.+.! 5 G p e.^.+.k.*.1.z.<.} } 5.e.5.&.5.v F % p <.E.<.i.&.! $ I 8 < < : 6 # 3 % 3 1 7 q G ",
"< % # 2 8 5 < w v G v V.i.3.&.i.&.i.*.! w i G 2.^.q.} j.<.} *.#.} 5.1.*.e.5.C M # u <.E.i.m.} B 9 ! 5 5 v y u p z < 3 6 & * 1 ",
"P ( +.&.@.&.&.@.2.8 6 Y.z.@.<.4.i.<.} / w < B <.E.5.&.} 5.[ 1.' @.1.} :.1.5.K u 3 d @.Y.4.j.1.! $ G I M G B G M G L ! G z u 7 ",
"<.k.S.E.~.B.Y.C.z.! 5 Y.i.e.&.} <.e.4._ 5 % F $.~.c.i.&.i.<.e.&.@.e.*.2.z.@.B b 6 p =.Y.2.@.i.! < M r.F.F.c.1.( G v v a z a Z ",
"c.S.S.b.c.q.s.<.k.i < E.1.k.3.<...s.e._ h % B ' H.C.i.-.<.( 1.} +.1.@.r.} <.U 3 8 y <.G.e.:.5.D $ b U.@.e.z.J.S.T.E.Q.T.5.a M ",
"S.c.i.r.#.V.&.c.<._ 5 E.1.1.i.5.e.5.1.' B = p P A.J.e.c.5.@.y.*.k.*.} e.e.( v v 6 y &.G.5.k.} ! X G J.y.@.i.c.&.&.r.{ O.( a W ",
"U.k.1.<.z.} i.:.e.( $ ~.q.5.r.r.1.5.5.! L = 5 B k.Y.k.g.q.2.<.( 2.[ [ j.} } G % w v &.V.i.i.<.H < v H.1.k.1.} z.i.&.m.5.! 5 B ",
"Y.j.e.i.&.e.5.{ c.v 3 Y.z.r.5.<.*.e.i.! B < 5 G #.E.V.5.2.q.*.&.&.i.e.5.w.( v 6 6 G &.J.r.<.=.B 5 u S.i.$.i.z.&.@.c.} y./ p v ",
"Y.k.k.&.<.k.y.4.@.P % S.C.} i.} z.i.5./ G 3 1 C } A.C.k.&.O.5.1.:.<.&.w.&.( B $ 5 B #.H.&.i.P Y # L c.i.z.e.} s.<.&.k.j.G y v ",
"U.k.1.r.e.&.j.1.y.v 6 M.J.X.3.k.,.&.1./ b 1 3 v I j.Y.y.<.i.} z.*.j.:.1._ G 3 5 p G _ c.} F 5 M 5 u z.i.:.k.i.2.<.1.} 2.T p y ",
"Y.z.<.j.<.i.e.e.$./ < 5.E.@.3.&.1.1.i.} M % < p G &.C.x.#.#.Q ' v G v p w v 4 6 w s T p 8 y p v B w ! B M P G G P K G ! d 5 w ",
"U.c.2.5.j.} z.` i.v : e.S.1.@.j.4.&.<.( G $ : s B P ' O.! G p s % = 6 = $ 6 < 6 y p G B v / ! n P b u 6 : % : % 6 $ < 6 % 5 y ",
"W.k.<.3.5.i.&.i.2.K = [ H.c.5.i.+.5.5.! G < 6 5 v M v 3 w 6 < $ 8 3 5 y 1 3 < 6 y M I F M G B y G M u v v p p p v 5 p p w w s ",
"G.c.q.6.3.1.i.3.5.I < G E.&.,.1.&.i.4.P Y : = 5 v v v 5 s 5 u u N M v p M v V G B G G P | | ( $.} o.X.} ..| _ }  .} } @.( v B ",
"H.z.5.e.2.<.e.&.@.d % v ~.e.q.<.} 5.2./ K = < 6 y / -.X.} } +.o.} } ..' o.[ @.*.&.<.6.e.M.z.c.F.M.k.N.B.M.V.c.M.C.z.c.i.@.v M ",
"F.c.6.i.y.q.&.q./ 5 w G ~.y.e.2.&.&.#.' P 3 3 6 6 } c.C.M.V.M.V.c.M.M.C.V.k.V.C.n.J.F.H.E.P.~.E.J.~.~.!.F.Q.W.H.Y.F.S.r.( 6 B ",
"Y.i.e.5.<.y.c.&.G < 6 v Y.&.5.@.j.>.i.G P 8 # = 1 ..B.J.G.~.Y.~.E.~.Y.^.~.S.~.E.!.~.E.Y.Y.Y.F.c.k.Z.z.n.i.B.V.k.N.c.k.' G 6 v ",
"C.M.i.2.e.*.2.} ! 6 u G Y.z.e.r.j.} &./ G u 6 < % ] M.S.k.M.c.V.B.c.z.M.n.i.M.c.c.i.c.e.5.e.&.<.r.,.k.,.1.' i.*.c.&.n.' J 6 y ",
"c.:.@.r.<./ ' ' s % 6 B F.&.&.<.6.e.r.' F u 3 3 : ! c.W.z.k.&.@.&.X.&.&.6.q.q.5.1.3.z.r.5.7.@.q.1.i.e.5.<.r.&.c.e.5.#.} G 6 w ",
"k.5.k.j.&.D B P < w v B i.i.<.&.i.*.*.' I y % $ 3 v c.G.x.&.:.<.r.5.e.<.e.i.r.2.<.e.i.q.<.<.@.<.( @.<.&.i.@.i.} M.&.i.( I 4 u ",
"<.[ } G I G G Y < 3 e D t.<.q.1.$.5./ ( Z p = $ 6 7 v.L.W.5.e.e.@.*.$.[ ,.#.1.+.e.r.e.1.@.,.<.e.q.*.i.@.@.@.#.&.6.&.r.' P < 7 ",
"5 % % w v B Z G 5 w p v _ ( ' L / _ I G C h < % % 6 r.J.F.<.&.u.&.t.2.3.y.#.q.[ e.#.<.3.6.j.<.&.z.+.<.&.@.:.$.q.<.' ' ' G 6 y ",
"M P K u q 5 , 4 1 v B p p h 5 6 u p u w u 9 4 : % 5 <.Y.c.u.>.q.q.5.q.{ >.@.q.' q.:.5.*.u.*.&.[ 1.@.&.:.w.6.<.*.e.} +.' G < 8 ",
"C B v p M y q w q z a 5 u $ 5 3 # 7 # < < 6 $ q 3 d ' :.{ { _ / @.( ' 7.i.k.g.%.@.} @.O.>.{ 5.*.e.2.r.o.<.6.O.} &.#.1.[ G 6 r ",
"&.8.i.i.d.&.7.U v p ~ p w 6 # u 1 4 7 2 1 7 6 7 % M G G a e e , q 3 < ! R '  .=.@.#. .#.} } @.) &.( #.}  .O.{ %.#.} } / P : u ",
"d.n.S.Y.V.T.L.N.d.i.@.' ^ I Z t 7 a a a 5 v < n u G B M d 7 u e e n 8 5 z J H H n M W I G H Z H G v P G M K H H G P ! B : w 8 ",
"k.V.M.7.r.v.n.L.L.G.S.k.e.r.r.l.h.a.r.>.-.<.| #.( ^ G G B V Z Z v v 8 7 a 1 * 8 p 2 1 1 1 7 * e 4 < * 1 4 * * * # # # u : B N ",
"k.Z.u.g.g.d.v.6.i.n.S.E.L.L.U.E.U.U.U.L.U.S.U.V.v.N.x.x.r.l.w.>.B B a t u z u u w u n p u 4 1 1 5 1 , * q 4 e , a 6 s y 6 m z ",
"g.J.i.:.w. .O.7.w.O.w.7.#.g.O.k.O.k.k.w.r.7.e.l.i.S.V.U.N.G.u.&.p B G z z M a q z 1 u , a u M e V 5 u a a 7 w u q 7 5 G F C N ",
"k.U.u.g.g.r.i.>.>.&.&.w.w.5.4.<.O.>.u.O.O.O.4.w.&.g.>.x.i.x.O.W * u L M x.J.U.k.O.M B ~ z W a a M z H M a U a U u H B b C C Y ",
"t.N.7.;.7.]  .7.k.w.l.9.&.7. .7. .X. .7.-.w.2.d.%.t.>.9.4.e.) J , 7 d M S.w.v.S.Y.Q.G.k.P ! V B.M.T.T.J.Y.L.Y.N.c.i.8.} Y r A ",
"9.-.^ T T U U U U ^ A ~ U U T ^ T ~ T ^ T U T T P ) U ^ ^ ' G V 8 1 a Z I.h.f.v.d.f.k.d.P Z ) I.9.n.-.2.8.X.l.-.f.1.0.S.$.t F ",
"%.U a a 7 a a a a a e a a e a a e t t e t t t a w w e a a e 8 e a = = d l.9.f.f.9.A 0.X.] d f.n.X.7.;.f.7.f.;.8.-.2.2.p.! $ I ",
"a * * = * 1 $ 4 * * 2 * = = $ * * = < * = = = = 1 = = = = * = < * = 1 t d a a A T ] T U T H n.9.9.;.f.0.9.;.;.9.2.9.0.@.~ $ / ",
"v a u 4 q q q 4 9 0 q < 7 3 5 3 4 4 4 4 4 4 3 4 2 , 4 2 < 4 4 1 4 5 < z B H a 8 < * = $ t * ! ^ A n A A J Z Z J R C F F F $ K ",
"U G L c S x D m S D S k z g l f f g f g g k g k z x z x g k h h x h h h Z W R M f y w h w y K x 1 * 2 = : < % 3 , , , : 9 : z ",
"0 0 x c c j k x k f x 0 f h 0 f g l f f f j f j j f f f f f f f f f k j l l x j S k j j f j f E 0 g g i p y f f j j k 9 x i g ",
"o O O O O - o o   o     o o   o o o o o O O o o O o O o - o O - O o O O O O o - o - o - O o ; O o + o   o O o - - o O +     @ "
};
