/* XPM */
static char *_5a69bedd7a74037c0137a3d38ea3978EWbYcfeXfLJw6SP3[] = {
/* columns rows colors chars-per-pixel */
"45 50 243 2 ",
"   c None",
".  c black",
"X  c #030106",
"o  c #00000A",
"O  c #06030D",
"+  c #0C0A0C",
"@  c #130909",
"#  c #160909",
"$  c #120A0C",
"%  c #00001D",
"&  c #130F19",
"*  c #390804",
"=  c #301213",
"-  c #180025",
";  c #15002C",
":  c #1C032E",
">  c #291E20",
",  c #222223",
"<  c #262526",
"1  c #2A2029",
"2  c #2D2930",
"3  c #3E383B",
"4  c #470000",
"5  c #4B0000",
"6  c #500000",
"7  c #47171E",
"8  c #680000",
"9  c #670009",
"0  c #721D00",
"q  c #700013",
"w  c #790017",
"e  c #7B001C",
"r  c #6C0B22",
"t  c #730723",
"y  c #7A0021",
"u  c #7B0026",
"i  c #7C0029",
"p  c #681E2C",
"a  c #7A192E",
"s  c #503A3A",
"d  c #652A32",
"f  c #7A2735",
"g  c #7A2737",
"h  c #6D333C",
"j  c #75323D",
"k  c #7E313E",
"l  c #5A3740",
"z  c #7C3440",
"x  c #763B45",
"c  c #534652",
"v  c #614B4F",
"b  c #685053",
"n  c #605359",
"m  c #765358",
"M  c #7D5F64",
"N  c #7D6663",
"B  c #74606B",
"V  c #7F666D",
"C  c #AE3800",
"Z  c #86072B",
"A  c #80142E",
"S  c #871431",
"D  c #831F36",
"F  c #832238",
"G  c #842E3F",
"H  c #C90000",
"J  c #D7773C",
"K  c #833241",
"L  c #853A46",
"P  c #89434C",
"I  c #834F56",
"U  c #894F5A",
"Y  c #98646A",
"T  c #9B6D73",
"R  c #867079",
"E  c #8D727B",
"W  c #8A747B",
"Q  c #88747C",
"!  c #8E767E",
"~  c #9A7270",
"^  c #9C7677",
"/  c #AC7B78",
"(  c #C06974",
")  c #FF9800",
"_  c #FF963E",
"`  c #92837C",
"'  c #FF8742",
"]  c #FFFF42",
"[  c #937681",
"{  c #987F89",
"}  c #948184",
"|  c #9D838C",
" . c #9B848D",
".. c #A88182",
"X. c #AF8482",
"o. c #AF8582",
"O. c #A68B84",
"+. c #A48B8D",
"@. c #B18087",
"#. c #B68386",
"$. c #B18785",
"%. c #B08686",
"&. c #B18589",
"*. c #A48E96",
"=. c #A68E97",
"-. c #AC8F9B",
";. c #AF8E9A",
":. c #AE8F9C",
">. c #B28E9E",
",. c #AE929C",
"<. c #A99D99",
"1. c #B3919C",
"2. c #B29E99",
"3. c #B0989C",
"4. c #BC989F",
"5. c #B197A1",
"6. c #B495A1",
"7. c #B595A1",
"8. c #B495A2",
"9. c #B496A2",
"0. c #BA96A5",
"q. c #B798A4",
"w. c #B799A4",
"e. c #BF9DA3",
"r. c #B999A6",
"t. c #BB99A7",
"y. c #BC98A7",
"u. c #B59FA8",
"i. c #BC9BA8",
"p. c #BD9AA9",
"a. c #BD9BA9",
"s. c #BE9DAA",
"d. c #BF9CAB",
"f. c #BF9EAB",
"g. c #BF9DAC",
"h. c #B1A2A7",
"j. c #BBAAA3",
"k. c #B5B0B2",
"l. c #BBB5B6",
"z. c #CD8089",
"x. c #C28A92",
"c. c #CD8F97",
"v. c #C39091",
"b. c #C79195",
"n. c #C0969B",
"m. c #C69F98",
"M. c #D7979F",
"N. c #E0AD9A",
"B. c #CE9EA3",
"V. c #C19DAC",
"C. c #C09EAC",
"Z. c #C19EAC",
"A. c #C19EAD",
"S. c #C19FAD",
"D. c #C29FAE",
"F. c #C39FAE",
"G. c #D69FA3",
"H. c #C3A0A1",
"J. c #C1A3A0",
"K. c #C3ABA0",
"L. c #C2A0AE",
"P. c #C3A0AE",
"I. c #C3A0AF",
"U. c #C4A0AF",
"Y. c #D0AAA4",
"T. c #D5A7AA",
"R. c #DAA3A9",
"E. c #DDA1A9",
"W. c #D2A9AC",
"Q. c #C7B4AD",
"!. c #CEB3AC",
"~. c #D7B6AC",
"^. c #C4A1B0",
"/. c #C5A1B0",
"(. c #C5A2B0",
"). c #C5A2B1",
"_. c #C6A2B1",
"`. c #C7A2B2",
"'. c #C6A3B2",
"]. c #C7A3B2",
"[. c #C6A6B5",
"{. c #C8A5B3",
"}. c #C9A5B4",
"|. c #C8A5B5",
" X c #CAA6B5",
".X c #CBA6B6",
"XX c #CDAAB8",
"oX c #DFA8B0",
"OX c #D8AFB4",
"+X c #D1ACBB",
"@X c #D0ACBC",
"#X c #CDB9BB",
"$X c #D1B7B2",
"%X c #D1B8B1",
"&X c #E1B8BD",
"*X c #FFDF9D",
"=X c #D7C2B7",
"-X c #DAC1B7",
";X c #D9C3B6",
":X c #F3C2A9",
">X c #E2C7B9",
",X c #E4CCBF",
"<X c #BFC1C1",
"1X c #C8C5C6",
"2X c #CDC4C5",
"3X c #D5CDC6",
"4X c #D2CCCD",
"5X c #DFD0C9",
"6X c #D3CED0",
"7X c #DBCFD0",
"8X c #D4D0D0",
"9X c #D5D1D2",
"0X c #D7D3D4",
"qX c #DDD7D5",
"wX c #DDD8D7",
"eX c #DFD5DB",
"rX c gray87",
"tX c #E7CBC1",
"yX c #EBCFC3",
"uX c #EBD0C1",
"iX c #EED0C0",
"pX c #ECD0C3",
"aX c #EAD1C4",
"sX c #EED7CC",
"dX c #F0D3C7",
"fX c #F2D5C4",
"gX c #F1D5C8",
"hX c #F3D5C8",
"jX c #F1D9CA",
"kX c #F0DACB",
"lX c #F5DCCE",
"zX c #FDDECE",
"xX c #E8D0D3",
"cX c #E8DADC",
"vX c #FBE2D2",
"bX c #FCE1D2",
"nX c #FFFFDE",
"mX c #E1E0E0",
"MX c #ECE3E2",
"NX c #E8E5ED",
"BX c #EFE4EF",
"VX c #EBEDEF",
"CX c white",
/* pixels */
"                                    VX<X4XcX                                              ",
"                                    OX@.x.M.MX                                            ",
"                                  BXc.#.x.&.E.                                            ",
"                                  &XG.,XkXyXR.W.                                          ",
"                                  oXT.=XhXj.J.z.                                          ",
"                                  B.n.<.dXQ.J.( N.                                        ",
"                                  #Xb.jXpXbXO.Z                                           ",
"                                  2XP !.tX%XY e.                                          ",
"                                  9X} v $.^ b xX                                          ",
"                                  aX;Xd 7 s 5 /                                           ",
"                                wXaXbX$.8 j F G                                           ",
"                                qX~.dX;Xf F k y :X                                        ",
"                                6XX.Y.sXT u L w m.                                        ",
"                                  ..~ 5.^.x p i $.                                        ",
"                                  3.4 V XX| = r %X                                        ",
"                                  rXK t | @X1.q 3X                                        ",
"                                    M e h ! [.e.eX                                        ",
"                                  mXg A S 9 l 2.lXNXB                                     ",
"                                    I a z U m E +.N * *X                                  ",
"                                    u.;.7.=.,..X>.    0                                   ",
"                                  6X0.|.I.i.^.A.A.    5 _                                 ",
"                                  h.7.I.A.A.7.^.f.        C                               ",
"                                  *.f.I.^.r.Q ^.A.                                        ",
"                                  q.^.A.^.,.n ^.^.                                        ",
"                                  t.I.V..X} 3 I.^.nX                                      ",
"                                  9XU.A..XR < t.^.i.                                      ",
"                                  V.^.A.|.! , 7.`.A.                                      ",
"                                  t.|.^.CX  J r.@X                                        ",
"                                  >.q.[       c                                           ",
"                                  k.l.        `                                           ",
"                                  1X0X        zX                                          ",
"                                    aX        fX                                          ",
"                                    '         pX                                          ",
"                                              ]                                           ",
"                                  H           )                                           ",
"                                  >X          K.                                          ",
"                                  .           .                                           ",
"                                .             :                                           ",
"                                .             .                                           ",
"                                ;             .                                           ",
"                                %                                                         ",
"                                .                                                         ",
"                                .                                                         ",
"                              X o                                                         ",
"                              & O           .                                             ",
"                              - +           .                                             ",
"                            2 .             .                                             ",
"                            > 1             . .                                           ",
"                          $ # @                                                           ",
"                                                                                          "
};
