/* XPM */
static char *_a754579444b4a2493acd94c8bae6117Q3L6uXMGPu5jSYvd[] = {
/* columns rows colors chars-per-pixel */
"46 50 202 2 ",
"   c None",
".  c #000000",
"X  c #0D0D0D",
"o  c #00090C",
"O  c #13100D",
"+  c #000F18",
"@  c #001116",
"#  c #001319",
"$  c #001D1D",
"%  c #0C1416",
"&  c #1C1D1C",
"*  c #191517",
"=  c #2D0000",
"-  c #3A0000",
";  c #2E1B1C",
":  c #2B1212",
">  c #381919",
",  c #371919",
"<  c #221F07",
"1  c #332A15",
"2  c #3C2D15",
"3  c #25221E",
"4  c #002323",
"5  c #082D2D",
"6  c #003D3D",
"7  c #1D2326",
"8  c #262626",
"9  c #2B2B2B",
"0  c #2D2822",
"q  c #362929",
"w  c #323232",
"e  c #450203",
"r  c #480504",
"t  c #5D0102",
"y  c #500000",
"u  c #5B1F0A",
"i  c #531410",
"p  c #640001",
"a  c #720001",
"s  c #7D0202",
"d  c #681C00",
"f  c #7A1A1A",
"g  c #4C2F1A",
"h  c #4F311C",
"j  c #78270E",
"k  c #713F1A",
"l  c #462A2A",
"z  c #562828",
"x  c #553D2E",
"c  c #653C3C",
"v  c #5E4B1F",
"b  c #634A1F",
"n  c #6C481E",
"m  c #7E4B1E",
"M  c #77481B",
"N  c #7C4B21",
"B  c #724F21",
"V  c #7D5021",
"C  c #154A4A",
"Z  c #215050",
"A  c #2E5050",
"S  c #4D4444",
"D  c #474141",
"F  c #524444",
"G  c #524848",
"H  c #4C5C5C",
"J  c #555C5C",
"K  c #595656",
"L  c #635959",
"P  c #496969",
"I  c #5B6464",
"U  c #596565",
"Y  c #547D7D",
"T  c #6A6A6A",
"R  c #626262",
"E  c #747474",
"W  c #7B7C7C",
"Q  c #767979",
"!  c #8C0303",
"~  c #820504",
"^  c #960000",
"/  c #9D0202",
"(  c #9D0C0C",
")  c #970B09",
"_  c #891718",
"`  c #941414",
"'  c #9C1414",
"]  c #A40303",
"[  c #AA0203",
"{  c #A30909",
"}  c #B30101",
"|  c #BD0102",
" . c #B30C0C",
".. c #BD0D0D",
"X. c #A91313",
"o. c #B61616",
"O. c #AA1E06",
"+. c #9F3409",
"@. c #C30001",
"#. c #CE0000",
"$. c #CA0C0C",
"%. c #C4060B",
"&. c #D50101",
"*. c #DB0101",
"=. c #DC0C0C",
"-. c #D00E0E",
";. c #C81906",
":. c #D21E07",
">. c #C51717",
",. c #E50202",
"<. c #E90000",
"1. c #E60A08",
"2. c #F30305",
"3. c #FD0305",
"4. c #FE0508",
"5. c #FE0A09",
"6. c #FF0B07",
"7. c #FF1906",
"8. c #FF1409",
"9. c #FF1A0A",
"0. c #FD0D12",
"q. c #FE1111",
"w. c #F31A1D",
"e. c #FD1B1C",
"r. c #FA131A",
"t. c #CA2508",
"y. c #D1380C",
"u. c #FF220B",
"i. c #FF2B0C",
"p. c #FF310D",
"a. c #F71F20",
"s. c #CE2F2F",
"d. c #EE2121",
"f. c #F32424",
"g. c #FF2525",
"h. c #824D1F",
"j. c #835F13",
"k. c #AF5110",
"l. c #B05812",
"z. c #8D6F18",
"x. c #AC7B1C",
"c. c #834F21",
"v. c #845524",
"b. c #885323",
"n. c #955725",
"m. c #935927",
"M. c #995B27",
"N. c #965B28",
"B. c #8F4646",
"V. c #7D871E",
"C. c #808C1F",
"Z. c #95801C",
"A. c #A88A1F",
"S. c #A88E20",
"D. c #A79D25",
"F. c #AB9222",
"G. c #A5A527",
"H. c #AFA928",
"J. c #A9A427",
"K. c #B2AD29",
"L. c #BAA828",
"P. c #B3B12A",
"I. c #BBB92D",
"U. c #BBB72C",
"Y. c #C3AF2A",
"T. c #C9C831",
"R. c #D4D635",
"E. c #5E8484",
"W. c #848484",
"Q. c #8A8A8B",
"!. c #899292",
"~. c #949494",
"^. c #999B9B",
"/. c #979C9C",
"(. c #A59898",
"). c #A2A5A5",
"_. c #A9A9A9",
"`. c #A6B7B7",
"'. c #B4B4B4",
"]. c #BCBCBD",
"[. c #B9C7C7",
"{. c #C4C4C4",
"}. c #C9C6C6",
"|. c #CBCACA",
" X c #CDD3D3",
".X c #D1D3D3",
"XX c #D8DBDB",
"oX c #DBE3E3",
"OX c #E3E3E3",
"+X c #ECEBEB",
"@X c #F1EEEE",
"#X c #F3F3F3",
"$X c #F9FAFA",
"%X c gray99",
"&X c #FDFDFD",
"*X c #FCFDFD",
"=X c #FEFEFE",
"-X c white",
";X c #FFFEFE",
":X c #FFFFFF",
">X c #F6F8F8",
",X c #ECF3F3",
/* pixels */
"                                                                                            ",
"                                                                                            ",
"                                        4 > > > > 5                                         ",
"                                      z *.3.2.2.6.=.u                                       ",
"                                    4 ) ,.3.3.3.3.1.] $                                     ",
"                                  l ) ! s d.g.g.d.~ ~ ) z                                   ",
"                              ( ( -.e.g.g.&.| | &.g.g.e.-.( X.                              ",
"                            [ 3.3.f.} } } (.`.`.(.} } } f.4.3.X.                            ",
"                          4 q.e.X.y E.|.[.$X&X&X$X[.|.E.r X.e.5.#                           ",
"                          >.] p P  X+X&X*X&X&X&X*X*X&X#X.XP p { >.                          ",
"                        >.[  XOX+X*X&X&X$X&X&X&X&X&X*X&X&X#XXXZ / s.                        ",
"                      4 &.B.,X&X&X*X&X&X&X&X&X&X&X&X&X&X&X&X*XoXB.&.5                       ",
"                      & K OX&X&X&X&X&X&X&X&X&X&X&X&X&X&X&X&X&X&X+XL 8                       ",
"                      . .X&X&X&X&X&X&X&X&X&X&X&X&X&X&X&X&X&X&X&X&XXX.                       ",
"                      E +X&X&X&X&X&X&X&X&X&X&X&X&X&X&X&X&X&X&X&X&X+XE                       ",
"                    . {.%X%X&X&X&X&X&X&X&X&X&X&X&X&X&X&X&X&X&X&X&X&X|..                     ",
"                    Q.#X&X&X*X*X&X+X^.OX&X&X&X&X&X&XOX~.+X&X&X&X&X&X#XQ.                    ",
"                    '.&X&X*X*X>X^.E . R ~.+X&X&X+X^.T . E ~.#X&X&X&X&X{.                    ",
"                  . '.&X*X&X%XB.. . w . . R #X>XT . . w . . Q #X&X&X&X'..                   ",
"                  ~.&X&X&X&X#X9 . 9 . 8 8 . +X#X. & 8 . 8 X X #X&X&X&X&X^.                  ",
"                . ).&X%X&X&X#XJ . * . O . 8 @X#Xw . X . X . G #X&X&X&X&X_..                 ",
"              x d W.#X&X&X&X#X& . w . 9 8 . +X@X. & 9 . 9 X . ,X&X&X&X$XQ.d x               ",
"              g N . ].&X&X&X$X^.. . w . . E.$X%XQ.. . w . . ~.$X&X&X&X{.. N g               ",
"              g N . {.&X&X&X&X$X'.Q.. W '.@X&X&X#X'.W.. Q.'.#X&X&X&X&X}.. M h               ",
"              g N . {.&X&X&X&X&X&X#X'.+X&X&X&X&X&X&X+X'.#X&X&X&X&X&X&X}.o M h               ",
"                1 . {.&X&X&X&X&X&X&X&X&X&X&X&X&X&X&X&X&X&X&X&X&X&X&X&X|.. 1                 ",
"              _ | . {.&X&X&X&X&X&X&X&X&X&X&X&X&X&X&X&X&X&X&X&X&X&X&X&X{.. %._               ",
"              f 1.O ].&X&X&X&X&X&X&X&X&X&X#XW E #X&X&X&X&X&X&X&X&X&XoXE C *.'               ",
"            $ { *.6 I }.&X&X&X&X&X&X&X&X&X~.. . Q.&X&X&X&X&X&X&X&X&X}.H S ,.0.:             ",
"            _ 3.1.s c U |.&X&X&X&X&X&X&X&XQ.. . Q &X&X&X&X&X&X&X&X|.R G &.q.3.!             ",
"          ` 2.3.5.5.*.F J }.&X&X&X&X&X&X&XW . . E &X&X&X&X&X&X&X|.J D &.5.6.6.4.`           ",
"        o 2.6.6.4.5.8.*.G J |.&X&X&X&X&X&X}.. . {.&X&X&X&X&X&X|.U S *.q.5.6.6.6.2.$         ",
"        { 4.6.4.6.4.4.q.*.F J }.&X&X&X&X&X&X|.|.&X&X&X&X&X&X|.U S &.q.4.4.6.4.4.2.X.        ",
"      4 ,.5.4.6.4.8.8.4.6.=.l Z ). X&X&X&X&X&X&X&X&X&X&X.X_.A l =.6.4.9.8.6.6.5.5.<.#       ",
"      o.2.5.6.4.8.3.@.:.5.5.<.-.. K )././.+X&X&X+X/.).).J . $.<.5.5.:.| 3.5.4.6.5.4.X.      ",
"      #.6.5.4.5.3.y.+.,.4.u.0.0.w.@.. - = Q !.!.W = - . | w.0.0.u.4.<.+.y.3.5.4.6.5.*.@     ",
"    4 &.6.6.3.u.*.V.Y.j.t.,.u.i.3.0.a.a.f.^ e r ! w.a.w.0.4.i.u.<.t.j.Y.V.*.9.4.6.6.&.&     ",
"     .4.6.4.6.4.;.a S.R.J.Z.@.*.p.i.i.i.8.r.e.e.r.8.i.i.i.p.,.@.z.D.R.F.a ;.6.6.4.4.6...    ",
"    } 6.5.4.6.| s 4.*.s L.T.J.S.@.@.@.| 2.i.9.9.i.2.| @.@.@.S.J.T.L.~ &.4.~ } 3.6.4.6.|     ",
"    %.6.6.3.%.4 ~ 5.6.8.@.^ L.I.H.K.K.K.l.} } } } k.K.K.H.H.I.K./ @.9.6.6.! 4 >.3.6.3.$.    ",
"    _ | }  .    ! 6.5.8.8.9.@.] K.K.K.K.P.U.I.U.I.P.K.K.K.K.O.| 9.6.7.5.3.`      .} | _     ",
"                  / / ! 1.5.u.4.@.@.@.@.x.G.D.D.G.x.@.@.@.@.4.u.6.1.! / ] f                 ",
"            & . 2 b b v j ! a / i.i.i.p.<.#.&.&.#.<.i.i.i.i./ a ! j v b b 2 . O             ",
"          8 N c.b.n.n.n.V n B n t p e | 7.i.i.i.i.7.@.r p t n B n V n.n.m.b.c.m 0           ",
"        # N M.M.m.m.m.m.N.M.M.N.b.v.b.k u r e e r u M v.b.b.N.M.N.N.m.m.m.m.N.M.c.8         ",
"        . M h.m m m m h.m m m m c.c.b.m B 1     < B m h.c.c.h.m m h.m m c.N m h.M %         ",
"          # # # @ @ # # # # # # + + # * ; q     ; ; * # + + # $ # # @ @ # # # # #           ",
"                                                                                            ",
"                                                                                            ",
"                                                                                            "
};
