/* XPM */
static char *db73b8936b354c2ad2511ecb8db13ec0vWtCB3GmQuHNdR8f[] = {
/* columns rows colors chars-per-pixel */
"35 50 217 2 ",
"   c #01000D",
".  c #040D08",
"X  c #1D0000",
"o  c #0F131F",
"O  c #2B0505",
"+  c #370309",
"@  c #2F0310",
"#  c #3C0617",
"$  c #391818",
"%  c #35140C",
"&  c #1D1F2C",
"*  c #3A1721",
"=  c #241C29",
"-  c #232835",
";  c #283639",
":  c #373933",
">  c #450918",
",  c #481A19",
"<  c #510418",
"1  c #491827",
"2  c #581A2B",
"3  c #4D1E30",
"4  c #5C1A32",
"5  c #591633",
"6  c #560122",
"7  c #671A38",
"8  c #4B2725",
"9  c #57252A",
"0  c #5E332B",
"q  c #592636",
"w  c #4A3133",
"e  c #522F33",
"r  c #682637",
"t  c #4B403E",
"y  c #353946",
"u  c #772846",
"i  c #783549",
"p  c #6F2643",
"a  c #354C48",
"s  c #454A4F",
"d  c #454E57",
"f  c #575558",
"g  c #524C4E",
"h  c #66454A",
"j  c #7A4657",
"k  c #765B5A",
"l  c #754D51",
"z  c #78605E",
"x  c #5B5E65",
"c  c #785664",
"v  c #68676B",
"b  c #7E626B",
"n  c #7B6B6D",
"m  c #696D77",
"M  c #796773",
"N  c #607371",
"B  c #822B4D",
"V  c #883A5A",
"C  c #884858",
"Z  c #8E575A",
"A  c #974E67",
"S  c #875767",
"D  c #98546A",
"F  c #A05A74",
"G  c #8B6673",
"H  c #9A6374",
"J  c #966A7A",
"K  c #9A687A",
"L  c #95767A",
"P  c #936B6B",
"I  c #A5667A",
"U  c #AD7179",
"Y  c #6B827D",
"T  c #AE8A7E",
"R  c #747684",
"E  c #6F7983",
"W  c #8B7C85",
"Q  c #9A7D85",
"!  c #9A7885",
"~  c #A97B88",
"^  c #B5798C",
"/  c #B27389",
"(  c #C17D94",
")  c #6C8682",
"_  c #778784",
"`  c #7E8491",
"'  c #9D828A",
"]  c #928C8E",
"[  c #8B8D98",
"{  c #8C9697",
"}  c #949295",
"|  c #828E87",
" . c #A38B8C",
".. c #A5838C",
"X. c #B48384",
"o. c #AA8A95",
"O. c #B68A98",
"+. c #A59194",
"@. c #AB9498",
"#. c #B5929C",
"$. c #BB939E",
"%. c #BC9B92",
"&. c #90A09D",
"*. c #AFA09B",
"=. c #9499A4",
"-. c #A999A2",
";. c #BC9CA5",
":. c #B599A1",
">. c #A8A7AC",
",. c #B8A4AA",
"<. c #BCB2AF",
"1. c #A7ABB6",
"2. c #B7B5B7",
"3. c #B1ABB7",
"4. c #96AFA9",
"5. c #C38C99",
"6. c #C49899",
"7. c #C899A9",
"8. c #D599AD",
"9. c #C48FA3",
"0. c #C2ABAD",
"q. c #CAA7A8",
"w. c #D4A7A3",
"e. c #CEB1AF",
"r. c #D1B5AC",
"t. c #C3AAB1",
"y. c #D3A4B1",
"u. c #DAA7B8",
"i. c #CDB5B4",
"p. c #C5B6BB",
"a. c #CCB5BC",
"s. c #C9B8B8",
"d. c #D2B2B3",
"f. c #D6BABB",
"g. c #EBAAB7",
"h. c #BCC0BF",
"j. c #C8C0BE",
"k. c #E8C8BD",
"l. c #BAB9C1",
"z. c #CCBCC3",
"x. c #D6BDC5",
"c. c #E5B9C4",
"v. c #F3B8CA",
"b. c #B9C4C6",
"n. c #C8CACA",
"m. c #CBC7C8",
"M. c #D3C3C5",
"N. c #DDCBCD",
"B. c #D7C9C8",
"V. c #CDD1CD",
"C. c #D9D3CC",
"Z. c #C5CCD4",
"A. c #C5C5D1",
"S. c #D9CED3",
"D. c #D5CBD3",
"F. c #CCD8DC",
"G. c #D4DAD5",
"H. c #DBD7D9",
"J. c #D5DDDB",
"K. c #DCDBDC",
"L. c #D7D4D5",
"P. c #E3C8C7",
"I. c #F6CAC8",
"U. c #E4D3CE",
"Y. c #E2CBD1",
"T. c #EBCBD4",
"R. c #E2D2D4",
"E. c #E3DCDE",
"W. c #EADBDD",
"Q. c #E7D6D7",
"!. c #F1D9DC",
"~. c #F5C9D6",
"^. c #DAE2DD",
"/. c #D7E2DE",
"(. c #E3E2DE",
"). c #EEE1DD",
"_. c #DBDCE3",
"`. c #D8DCE7",
"'. c #E4DEE2",
"]. c #EADDE2",
"[. c #E3DBE5",
"{. c #F4DDE5",
"}. c #F9DFE8",
"|. c #DDE3E2",
" X c #DCE8E5",
".X c #DEECEA",
"XX c #D8E1E6",
"oX c #E6E6E6",
"OX c #EAE5E6",
"+X c #E4E9E6",
"@X c #E9E9E5",
"#X c #E6E6EA",
"$X c #E9E6E9",
"%X c #E5EAEA",
"&X c #EBEAEB",
"*X c #F3E3E5",
"=X c #F2EBE7",
"-X c #F3E5EA",
";X c #F3EBEC",
":X c #FBECEB",
">X c #FAE5E8",
",X c #EAF0EC",
"<X c #F2F2ED",
"1X c #FFF2ED",
"2X c #E5EAF2",
"3X c #ECEDF2",
"4X c #E7E7F2",
"5X c #F4ECF3",
"6X c #FCEDF2",
"7X c #FFE6F0",
"8X c #ECF3F2",
"9X c #ECF3FC",
"0X c #E6F4F2",
"qX c #F3F2F3",
"wX c #FBF1F4",
"eX c #F5F4FA",
"rX c #F9F7F9",
/* pixels */
"oX$X&X$XOXoXoX+X/.8X/.#XqXOX].7X>X*XOXE.@X+X X+X+X+X$X$X$X$X$X$X+XoX@X",
"oXoX$X$XoXoXoXoX%X+X8X^.OX-XD.S.{.{.:XOXoX|. X+X+X+X$X$X$X$X$X$X$XoX$X",
"oX@XoXoXoXoX+X+X&X|.|.3XE.-.' l @.<.S.:XoX@X%X+X+XoX$X$X$X$X#X$X$X@XoX",
"oX$XoXOXOXoXoXoX^.&X$XwX,.b #.@.~  .t.-X+X+X,X+X+XoX$X$X$X$X$XoXoX+X$X",
"oXoXoXOXOX-X@XoX#X$X$XB.! ;.$.#.x.,.,.].OX(.#X+X+XoX$X$XOX$X$X$XoX@X$X",
"+XoXoXOXoX$XoXK.[.-XS.t.W 8.u.v.T.7.' R.OX@X+XoX@X+X#XoXOX$X#X$XoX#X+X",
"+X#XOXoXoX$XOXH.[.{.z.z.#.O./ ^ y.9.Q N.-X&X@X#X#X+X#X$X$X$X$X#XoX@X$X",
"+X@X$XoXOX&XOXH.D.[.{.t.O.8.^ v.c.u.#.T.).OXoX@X@XoX$X$X#X#X$X#X$X+XoX",
"@XoXoXoX&XE.m.V.;XE.{.;.^ $.( v.c.y.~ !.*XOX&XoX$X#X#X$X$X$X@X#X@X#XoX",
"#XoXoXoX$X$XE.OXOXQ.]...~ 9.( / 8./ ~ M.>XW.&XoXoX+X$X#X#XoX@X#XoX#X@X",
"oX#X$XE.'.oXL.H.].OX>X7XO.C 8.i I U H S T.6XE.$XoX$X$X$X#X@X#X#X@XoX$X",
"oX$X@XoXoXK.n.n.&X[.-X,.1 1 / C u A j @ ..7X].&XoX@X$X$X$X$X#X$X$X+XoX",
"oXoXOX$X$XK.V.K.&X'.].a.G j 1 D r r C q c *X<XoX$XoX@X$X$X$X#X#X#XoXoX",
"@XE.oXoX@X+XJ.,XK.rX-Xz.L ! 1 5 B B r 1 3 a.*X;XoX#X#X$X#X$X@X#X@XoX@X",
"&X$X&XOXoXoX_.&X8Xb.<X].! ~ q i r B 4 H #.Q.].E.OX$X$X$X#X@X#X#X@X#XoX",
"OX$X;XoXoX@X^.#X%XV.C.-X@.@.O.8.A < O O.c.Q.:X&XOX@XoX$X$X#X#X$X$XoX+X",
"OX$X#X+X#X+XoXoX@X(.(.+XH.k ;.v.g.C > X.k.>XU.=X).=X@XE.-X@X#X#X+XoX@X",
"*X$X+X+X+X@XOXOX@X(.@XV.,X .O O.g.g.Z 6.j.C.=XG.(.<X<X(.oX+X%X&X#X#X$X",
"OX$X+X+X+X+X$XOX=X&X&X@X-Xa.@ @ U I.6.w.k.V.(.+X,XG.G.,X0X.XXX.X+XoX#X",
"$X$X+X.X+X+X$X*X].).;XE.:X' * i 2 w.I.r.j.(.@X/. X@X,X XF. X0XXX#X@XoX",
"$X$X+X.X+X+X$XOXOX5XE.].[.i * V r C 6.c.0.C.=X<XqX(.@X&X+X#X%X+X+XoX@X",
"OXoX.X+X X+XoX*X-X5X[.rX-.c b > r 9 , U f.f.N.].<.<.D.5XqXoX+X&X$X@X$X",
"OX@X+X+X+X#X$XOX$XL.rXH.M M c K V r 9 Z q.d.a.+.n M.wX].S.OX5XoXoXoX$X",
"OXOX+X.X#X#X$X&X$X#X2XZ.x g M ! H > U g.y.#.f.@.Q.].].].;X&X[.oX#XoX@X",
"OXOX+X#X+X+X#X$X|.0X.Xb.a x M Q J q ~ ~.o.c ;.].OXoXK.qX X^.,X X@X$X+X",
"-X).+X#X+X+X$X$X,X.XF.Y a a x o.1 K 7.! G J }.5XwX#X&X%X X+X X+X+XoXoX",
"OXOXoX@X#X+XoXoX,X/.; Y ) N _ -.3 K 8.i @ j ;.x.Q.K.;Xb.n.%XJ.&X@X#X$X",
"*XoXoX+X+X+XoX$X,X/.a Y 4.4.} +.S # A F 5 / 9.! b W ] f } oXOX^.oX#X@X",
"OX@X+X+X+X#XoXOX(.(.d | Y v f h / u 7 6 B u V q * o.Q.2.C.OX:XOX$XoX+X",
"$X#X+X+X+X+XOX-XOXh.. &.>.2.n 1 5 7 V B u u p 5 O.{.*XOX;XoX-XOXoX$XoX",
"$X#X X.X+XoX*X*X1Xm.T : : t $ 9 7 5 u u p u 5 j x.7X].&X,XG.(.oXoX@XoX",
"$X$X+X+X+X@XOXOX(.+Xn.<.*.z $ 1 5 5 7 7 u > j ! T.7X(.+X+X+X+X+X+X$X+X",
"$X&X$X$X+X+X@X).=X!.d.P.r.h + 0 2 , 2 < l T w.Z T (.<XJ.$X#X+X#X+X@X#X",
"-X$X$X@X+X+X(.@X).U.e.f.P O 9 , 8 9 , , 0 w.k.%.% T W.;X#XoX+X|.+X@XoX",
"$X$X$X#X+X(.+X).).r.k.d., w 0 8 , e 0 0 , T k.r.@.@.s.&XqXK.oX+X#X@X$X",
"$X$XoXoXoX@X@X=XU.j.i.q.h X $ $ $ $ X O P r.r.k.Q.Q.E.OXoX+X+X|.+XoX+X",
"OXoX(.+X@X+XoXOXM.M.x.f.w +.).,.w h ' i.>Xk.k.j.i.*X5X].4X&X+XoXoX$X@X",
"oX@X+X+X@X(.).OXM.0.Y.M.C.*X(.1XQ.!.*X>X1X).B.s.M.E.$XoX8X5XK.@XoX@X#X",
"oX(.@X+X@X(.oX].x.R.z.*X;X1X=X(.rX[.W.=XC.=X=Xj.>.L.rX[._.3X@XoX$X@X$X",
"(.+X@X,X,X+X(.].z.p.*X-X(.^.(.+XoX5X$X(.<X=XK._.L.p.XXeXoX[.oXoX+XoXoX",
"(.@X,X|.#X5X4XS.D.z.-X].[.%X#X X.X4XoX#X#X+X#X#X2.1.l.4X_.rXK.oX@XoX@X",
"<XG.%X8XJ.[.[.} W -.[.5XeX_. X0X2X#X#X#X#X+X#X#X[   R 4X#X_.qXoXoX#XoX",
"(.@X&X|.%XeXF.s = >.5X[.#X&X0X X#X2X#X#X.X#X.X.X1.o m 4X4XoXoXK.$X+X#X",
"(.,X&X|.3X2XF.m   3.5X4X3X|.%X%X#X4X#X#X+X#X#X#Xm ; & >.4X_.qXoX$XoXoX",
"<X(.&X&X`.2XZ.y   l.4X#X&X+X#X#X$X$X#X#X#X#X.X#X[   y d `..X#X#X@X@XoX",
"-XoX#X%X2X.X[ y & A.3X[.[.8X<XK.&X$X$X$XoX#X#X2X`.=.- R [ %XoX_.oX#X#X",
"-XOX_.5X9Xb.E 1.R A.[.eX&XoXoXoX$X-XOXOXoXoX#X2X9X`.R R 1._.3X$X@XoXoX",
"].5X$X_.XX9X` m =.`.3X&XK.&X@XoXOXOXOXoXoX#X4X4X`.4X4X`.2X3X#X+X$X#X@X",
"$X$X#X$X#X#X#X+X#X#X#X$X#X+XoX@X$X#XoXoX$X$X@X#X#X#X#X#X%X$X#XoXoXoXoX",
"oXoX$X#XoXoXoX#X#XoX+X@XoXoX$X@XoXoX$X@X+XoX@X#X#XoX@X#XoX#X#X@XoXoXoX"
};
